<mxfile host="Electron" agent="Mozilla/5.0 (Windows NT 10.0; Win64; x64) AppleWebKit/537.36 (KHTML, like Gecko) draw.io/24.7.5 Chrome/126.0.6478.183 Electron/31.3.0 Safari/537.36" version="24.7.5">
  <diagram name="Page-1" id="_YPGx0HM-Av0W8jhGHea">
    <mxGraphModel dx="2828" dy="1390" grid="1" gridSize="10" guides="1" tooltips="1" connect="1" arrows="1" fold="1" page="1" pageScale="1" pageWidth="850" pageHeight="1100" math="0" shadow="0">
      <root>
        <mxCell id="0" />
        <mxCell id="1" parent="0" />
        <mxCell id="K5OYbm_Al2ddz-POUuhQ-664" style="edgeStyle=orthogonalEdgeStyle;rounded=0;orthogonalLoop=1;jettySize=auto;html=1;entryX=0.5;entryY=0;entryDx=0;entryDy=0;" edge="1" parent="1" source="K5OYbm_Al2ddz-POUuhQ-404" target="K5OYbm_Al2ddz-POUuhQ-406">
          <mxGeometry relative="1" as="geometry" />
        </mxCell>
        <mxCell id="K5OYbm_Al2ddz-POUuhQ-665" style="edgeStyle=orthogonalEdgeStyle;rounded=0;orthogonalLoop=1;jettySize=auto;html=1;entryX=0.5;entryY=0;entryDx=0;entryDy=0;" edge="1" parent="1" source="K5OYbm_Al2ddz-POUuhQ-404" target="K5OYbm_Al2ddz-POUuhQ-407">
          <mxGeometry relative="1" as="geometry" />
        </mxCell>
        <mxCell id="K5OYbm_Al2ddz-POUuhQ-404" value="0-23 bulan" style="rounded=0;whiteSpace=wrap;html=1;" vertex="1" parent="1">
          <mxGeometry x="1370" y="120" width="120" height="40" as="geometry" />
        </mxCell>
        <mxCell id="K5OYbm_Al2ddz-POUuhQ-666" style="edgeStyle=orthogonalEdgeStyle;rounded=0;orthogonalLoop=1;jettySize=auto;html=1;entryX=0.5;entryY=0;entryDx=0;entryDy=0;" edge="1" parent="1" source="K5OYbm_Al2ddz-POUuhQ-405" target="K5OYbm_Al2ddz-POUuhQ-544">
          <mxGeometry relative="1" as="geometry" />
        </mxCell>
        <mxCell id="K5OYbm_Al2ddz-POUuhQ-667" style="edgeStyle=orthogonalEdgeStyle;rounded=0;orthogonalLoop=1;jettySize=auto;html=1;entryX=0.5;entryY=0;entryDx=0;entryDy=0;" edge="1" parent="1" source="K5OYbm_Al2ddz-POUuhQ-405" target="K5OYbm_Al2ddz-POUuhQ-547">
          <mxGeometry relative="1" as="geometry" />
        </mxCell>
        <mxCell id="K5OYbm_Al2ddz-POUuhQ-405" value="0-23 bulan" style="rounded=0;whiteSpace=wrap;html=1;" vertex="1" parent="1">
          <mxGeometry x="5850" y="120" width="120" height="40" as="geometry" />
        </mxCell>
        <mxCell id="K5OYbm_Al2ddz-POUuhQ-538" style="edgeStyle=orthogonalEdgeStyle;rounded=0;orthogonalLoop=1;jettySize=auto;html=1;entryX=0.5;entryY=0;entryDx=0;entryDy=0;" edge="1" parent="1" source="K5OYbm_Al2ddz-POUuhQ-406" target="K5OYbm_Al2ddz-POUuhQ-408">
          <mxGeometry relative="1" as="geometry" />
        </mxCell>
        <mxCell id="K5OYbm_Al2ddz-POUuhQ-539" style="edgeStyle=orthogonalEdgeStyle;rounded=0;orthogonalLoop=1;jettySize=auto;html=1;entryX=0.5;entryY=0;entryDx=0;entryDy=0;" edge="1" parent="1" source="K5OYbm_Al2ddz-POUuhQ-406" target="K5OYbm_Al2ddz-POUuhQ-409">
          <mxGeometry relative="1" as="geometry" />
        </mxCell>
        <mxCell id="K5OYbm_Al2ddz-POUuhQ-406" value="Sangat Pendek" style="rounded=0;whiteSpace=wrap;html=1;" vertex="1" parent="1">
          <mxGeometry x="250" y="160" width="120" height="40" as="geometry" />
        </mxCell>
        <mxCell id="K5OYbm_Al2ddz-POUuhQ-540" style="edgeStyle=orthogonalEdgeStyle;rounded=0;orthogonalLoop=1;jettySize=auto;html=1;entryX=0.5;entryY=0;entryDx=0;entryDy=0;" edge="1" parent="1" source="K5OYbm_Al2ddz-POUuhQ-407" target="K5OYbm_Al2ddz-POUuhQ-482">
          <mxGeometry relative="1" as="geometry" />
        </mxCell>
        <mxCell id="K5OYbm_Al2ddz-POUuhQ-541" style="edgeStyle=orthogonalEdgeStyle;rounded=0;orthogonalLoop=1;jettySize=auto;html=1;entryX=0.5;entryY=0;entryDx=0;entryDy=0;" edge="1" parent="1" source="K5OYbm_Al2ddz-POUuhQ-407" target="K5OYbm_Al2ddz-POUuhQ-485">
          <mxGeometry relative="1" as="geometry" />
        </mxCell>
        <mxCell id="K5OYbm_Al2ddz-POUuhQ-407" value="Pendek" style="rounded=0;whiteSpace=wrap;html=1;" vertex="1" parent="1">
          <mxGeometry x="2490" y="160" width="120" height="40" as="geometry" />
        </mxCell>
        <mxCell id="K5OYbm_Al2ddz-POUuhQ-476" style="edgeStyle=orthogonalEdgeStyle;rounded=0;orthogonalLoop=1;jettySize=auto;html=1;entryX=0.5;entryY=0;entryDx=0;entryDy=0;" edge="1" parent="1" source="K5OYbm_Al2ddz-POUuhQ-408" target="K5OYbm_Al2ddz-POUuhQ-410">
          <mxGeometry relative="1" as="geometry" />
        </mxCell>
        <mxCell id="K5OYbm_Al2ddz-POUuhQ-477" style="edgeStyle=orthogonalEdgeStyle;rounded=0;orthogonalLoop=1;jettySize=auto;html=1;entryX=0.5;entryY=0;entryDx=0;entryDy=0;" edge="1" parent="1" source="K5OYbm_Al2ddz-POUuhQ-408" target="K5OYbm_Al2ddz-POUuhQ-411">
          <mxGeometry relative="1" as="geometry" />
        </mxCell>
        <mxCell id="K5OYbm_Al2ddz-POUuhQ-408" value="Gizi Buruk" style="rounded=0;whiteSpace=wrap;html=1;" vertex="1" parent="1">
          <mxGeometry x="-310" y="220" width="120" height="40" as="geometry" />
        </mxCell>
        <mxCell id="K5OYbm_Al2ddz-POUuhQ-478" style="edgeStyle=orthogonalEdgeStyle;rounded=0;orthogonalLoop=1;jettySize=auto;html=1;entryX=0.5;entryY=0;entryDx=0;entryDy=0;" edge="1" parent="1" source="K5OYbm_Al2ddz-POUuhQ-409" target="K5OYbm_Al2ddz-POUuhQ-452">
          <mxGeometry relative="1" as="geometry" />
        </mxCell>
        <mxCell id="K5OYbm_Al2ddz-POUuhQ-479" style="edgeStyle=orthogonalEdgeStyle;rounded=0;orthogonalLoop=1;jettySize=auto;html=1;entryX=0.5;entryY=0;entryDx=0;entryDy=0;" edge="1" parent="1" source="K5OYbm_Al2ddz-POUuhQ-409" target="K5OYbm_Al2ddz-POUuhQ-455">
          <mxGeometry relative="1" as="geometry" />
        </mxCell>
        <mxCell id="K5OYbm_Al2ddz-POUuhQ-409" value="Gizi Kurang" style="rounded=0;whiteSpace=wrap;html=1;" vertex="1" parent="1">
          <mxGeometry x="810" y="220" width="120" height="40" as="geometry" />
        </mxCell>
        <mxCell id="K5OYbm_Al2ddz-POUuhQ-446" style="edgeStyle=orthogonalEdgeStyle;rounded=0;orthogonalLoop=1;jettySize=auto;html=1;entryX=0.5;entryY=0;entryDx=0;entryDy=0;" edge="1" parent="1" source="K5OYbm_Al2ddz-POUuhQ-410" target="K5OYbm_Al2ddz-POUuhQ-412">
          <mxGeometry relative="1" as="geometry" />
        </mxCell>
        <mxCell id="K5OYbm_Al2ddz-POUuhQ-447" style="edgeStyle=orthogonalEdgeStyle;rounded=0;orthogonalLoop=1;jettySize=auto;html=1;entryX=0.5;entryY=0;entryDx=0;entryDy=0;" edge="1" parent="1" source="K5OYbm_Al2ddz-POUuhQ-410" target="K5OYbm_Al2ddz-POUuhQ-413">
          <mxGeometry relative="1" as="geometry" />
        </mxCell>
        <mxCell id="K5OYbm_Al2ddz-POUuhQ-410" value="Perkotaan" style="rounded=0;whiteSpace=wrap;html=1;" vertex="1" parent="1">
          <mxGeometry x="-590" y="280" width="120" height="40" as="geometry" />
        </mxCell>
        <mxCell id="K5OYbm_Al2ddz-POUuhQ-448" style="edgeStyle=orthogonalEdgeStyle;rounded=0;orthogonalLoop=1;jettySize=auto;html=1;entryX=0.5;entryY=0;entryDx=0;entryDy=0;" edge="1" parent="1" source="K5OYbm_Al2ddz-POUuhQ-411" target="K5OYbm_Al2ddz-POUuhQ-418">
          <mxGeometry relative="1" as="geometry" />
        </mxCell>
        <mxCell id="K5OYbm_Al2ddz-POUuhQ-449" style="edgeStyle=orthogonalEdgeStyle;rounded=0;orthogonalLoop=1;jettySize=auto;html=1;entryX=0.5;entryY=0;entryDx=0;entryDy=0;" edge="1" parent="1" source="K5OYbm_Al2ddz-POUuhQ-411" target="K5OYbm_Al2ddz-POUuhQ-419">
          <mxGeometry relative="1" as="geometry" />
        </mxCell>
        <mxCell id="K5OYbm_Al2ddz-POUuhQ-411" value="Perdesaan" style="rounded=0;whiteSpace=wrap;html=1;" vertex="1" parent="1">
          <mxGeometry x="-30" y="280" width="120" height="40" as="geometry" />
        </mxCell>
        <mxCell id="K5OYbm_Al2ddz-POUuhQ-438" style="edgeStyle=orthogonalEdgeStyle;rounded=0;orthogonalLoop=1;jettySize=auto;html=1;entryX=0.5;entryY=0;entryDx=0;entryDy=0;exitX=0;exitY=0.5;exitDx=0;exitDy=0;" edge="1" parent="1" source="K5OYbm_Al2ddz-POUuhQ-412" target="K5OYbm_Al2ddz-POUuhQ-414">
          <mxGeometry relative="1" as="geometry">
            <Array as="points">
              <mxPoint x="-740" y="360" />
            </Array>
          </mxGeometry>
        </mxCell>
        <mxCell id="K5OYbm_Al2ddz-POUuhQ-439" style="edgeStyle=orthogonalEdgeStyle;rounded=0;orthogonalLoop=1;jettySize=auto;html=1;entryX=0.5;entryY=0;entryDx=0;entryDy=0;exitX=1;exitY=0.5;exitDx=0;exitDy=0;" edge="1" parent="1" source="K5OYbm_Al2ddz-POUuhQ-412" target="K5OYbm_Al2ddz-POUuhQ-415">
          <mxGeometry relative="1" as="geometry">
            <Array as="points">
              <mxPoint x="-600" y="360" />
            </Array>
          </mxGeometry>
        </mxCell>
        <mxCell id="K5OYbm_Al2ddz-POUuhQ-412" value="Semester 1" style="rounded=0;whiteSpace=wrap;html=1;" vertex="1" parent="1">
          <mxGeometry x="-730" y="340" width="120" height="40" as="geometry" />
        </mxCell>
        <mxCell id="K5OYbm_Al2ddz-POUuhQ-440" style="edgeStyle=orthogonalEdgeStyle;rounded=0;orthogonalLoop=1;jettySize=auto;html=1;entryX=0.5;entryY=0;entryDx=0;entryDy=0;exitX=0;exitY=0.5;exitDx=0;exitDy=0;" edge="1" parent="1" source="K5OYbm_Al2ddz-POUuhQ-413" target="K5OYbm_Al2ddz-POUuhQ-416">
          <mxGeometry relative="1" as="geometry">
            <Array as="points">
              <mxPoint x="-460" y="360" />
            </Array>
          </mxGeometry>
        </mxCell>
        <mxCell id="K5OYbm_Al2ddz-POUuhQ-441" style="edgeStyle=orthogonalEdgeStyle;rounded=0;orthogonalLoop=1;jettySize=auto;html=1;entryX=0.5;entryY=0;entryDx=0;entryDy=0;exitX=1;exitY=0.5;exitDx=0;exitDy=0;" edge="1" parent="1" source="K5OYbm_Al2ddz-POUuhQ-413" target="K5OYbm_Al2ddz-POUuhQ-417">
          <mxGeometry relative="1" as="geometry">
            <Array as="points">
              <mxPoint x="-320" y="360" />
            </Array>
          </mxGeometry>
        </mxCell>
        <mxCell id="K5OYbm_Al2ddz-POUuhQ-413" value="Semester 2" style="rounded=0;whiteSpace=wrap;html=1;" vertex="1" parent="1">
          <mxGeometry x="-450" y="340" width="120" height="40" as="geometry" />
        </mxCell>
        <mxCell id="K5OYbm_Al2ddz-POUuhQ-414" value="Harga Berlaku" style="rounded=0;whiteSpace=wrap;html=1;" vertex="1" parent="1">
          <mxGeometry x="-800" y="400" width="120" height="40" as="geometry" />
        </mxCell>
        <mxCell id="K5OYbm_Al2ddz-POUuhQ-415" value="Harga Konstan 2010" style="rounded=0;whiteSpace=wrap;html=1;" vertex="1" parent="1">
          <mxGeometry x="-660" y="400" width="120" height="40" as="geometry" />
        </mxCell>
        <mxCell id="K5OYbm_Al2ddz-POUuhQ-416" value="Harga Berlaku" style="rounded=0;whiteSpace=wrap;html=1;" vertex="1" parent="1">
          <mxGeometry x="-520" y="400" width="120" height="40" as="geometry" />
        </mxCell>
        <mxCell id="K5OYbm_Al2ddz-POUuhQ-417" value="Harga Konstan 2010" style="rounded=0;whiteSpace=wrap;html=1;" vertex="1" parent="1">
          <mxGeometry x="-380" y="400" width="120" height="40" as="geometry" />
        </mxCell>
        <mxCell id="K5OYbm_Al2ddz-POUuhQ-442" style="edgeStyle=orthogonalEdgeStyle;rounded=0;orthogonalLoop=1;jettySize=auto;html=1;entryX=0.5;entryY=0;entryDx=0;entryDy=0;exitX=0;exitY=0.5;exitDx=0;exitDy=0;" edge="1" parent="1" source="K5OYbm_Al2ddz-POUuhQ-418" target="K5OYbm_Al2ddz-POUuhQ-420">
          <mxGeometry relative="1" as="geometry">
            <Array as="points">
              <mxPoint x="-180" y="360" />
            </Array>
          </mxGeometry>
        </mxCell>
        <mxCell id="K5OYbm_Al2ddz-POUuhQ-443" style="edgeStyle=orthogonalEdgeStyle;rounded=0;orthogonalLoop=1;jettySize=auto;html=1;entryX=0.5;entryY=0;entryDx=0;entryDy=0;exitX=1;exitY=0.5;exitDx=0;exitDy=0;" edge="1" parent="1" source="K5OYbm_Al2ddz-POUuhQ-418" target="K5OYbm_Al2ddz-POUuhQ-421">
          <mxGeometry relative="1" as="geometry">
            <Array as="points">
              <mxPoint x="-40" y="360" />
            </Array>
          </mxGeometry>
        </mxCell>
        <mxCell id="K5OYbm_Al2ddz-POUuhQ-418" value="Semester 1" style="rounded=0;whiteSpace=wrap;html=1;" vertex="1" parent="1">
          <mxGeometry x="-170" y="340" width="120" height="40" as="geometry" />
        </mxCell>
        <mxCell id="K5OYbm_Al2ddz-POUuhQ-444" style="edgeStyle=orthogonalEdgeStyle;rounded=0;orthogonalLoop=1;jettySize=auto;html=1;entryX=0.5;entryY=0;entryDx=0;entryDy=0;exitX=0;exitY=0.5;exitDx=0;exitDy=0;" edge="1" parent="1" source="K5OYbm_Al2ddz-POUuhQ-419" target="K5OYbm_Al2ddz-POUuhQ-422">
          <mxGeometry relative="1" as="geometry">
            <Array as="points">
              <mxPoint x="100" y="360" />
            </Array>
          </mxGeometry>
        </mxCell>
        <mxCell id="K5OYbm_Al2ddz-POUuhQ-445" style="edgeStyle=orthogonalEdgeStyle;rounded=0;orthogonalLoop=1;jettySize=auto;html=1;entryX=0.5;entryY=0;entryDx=0;entryDy=0;exitX=1;exitY=0.5;exitDx=0;exitDy=0;" edge="1" parent="1" source="K5OYbm_Al2ddz-POUuhQ-419" target="K5OYbm_Al2ddz-POUuhQ-423">
          <mxGeometry relative="1" as="geometry">
            <Array as="points">
              <mxPoint x="240" y="360" />
            </Array>
          </mxGeometry>
        </mxCell>
        <mxCell id="K5OYbm_Al2ddz-POUuhQ-419" value="Semester 2" style="rounded=0;whiteSpace=wrap;html=1;" vertex="1" parent="1">
          <mxGeometry x="110" y="340" width="120" height="40" as="geometry" />
        </mxCell>
        <mxCell id="K5OYbm_Al2ddz-POUuhQ-420" value="Harga Berlaku" style="rounded=0;whiteSpace=wrap;html=1;" vertex="1" parent="1">
          <mxGeometry x="-240" y="400" width="120" height="40" as="geometry" />
        </mxCell>
        <mxCell id="K5OYbm_Al2ddz-POUuhQ-421" value="Harga Konstan 2010" style="rounded=0;whiteSpace=wrap;html=1;" vertex="1" parent="1">
          <mxGeometry x="-100" y="400" width="120" height="40" as="geometry" />
        </mxCell>
        <mxCell id="K5OYbm_Al2ddz-POUuhQ-422" value="Harga Berlaku" style="rounded=0;whiteSpace=wrap;html=1;" vertex="1" parent="1">
          <mxGeometry x="40" y="400" width="120" height="40" as="geometry" />
        </mxCell>
        <mxCell id="K5OYbm_Al2ddz-POUuhQ-423" value="Harga Konstan 2010" style="rounded=0;whiteSpace=wrap;html=1;" vertex="1" parent="1">
          <mxGeometry x="180" y="400" width="120" height="40" as="geometry" />
        </mxCell>
        <mxCell id="K5OYbm_Al2ddz-POUuhQ-450" style="edgeStyle=orthogonalEdgeStyle;rounded=0;orthogonalLoop=1;jettySize=auto;html=1;entryX=0.5;entryY=0;entryDx=0;entryDy=0;" edge="1" parent="1" source="K5OYbm_Al2ddz-POUuhQ-452" target="K5OYbm_Al2ddz-POUuhQ-458">
          <mxGeometry relative="1" as="geometry" />
        </mxCell>
        <mxCell id="K5OYbm_Al2ddz-POUuhQ-451" style="edgeStyle=orthogonalEdgeStyle;rounded=0;orthogonalLoop=1;jettySize=auto;html=1;entryX=0.5;entryY=0;entryDx=0;entryDy=0;" edge="1" parent="1" source="K5OYbm_Al2ddz-POUuhQ-452" target="K5OYbm_Al2ddz-POUuhQ-461">
          <mxGeometry relative="1" as="geometry" />
        </mxCell>
        <mxCell id="K5OYbm_Al2ddz-POUuhQ-452" value="Perkotaan" style="rounded=0;whiteSpace=wrap;html=1;" vertex="1" parent="1">
          <mxGeometry x="530" y="280" width="120" height="40" as="geometry" />
        </mxCell>
        <mxCell id="K5OYbm_Al2ddz-POUuhQ-453" style="edgeStyle=orthogonalEdgeStyle;rounded=0;orthogonalLoop=1;jettySize=auto;html=1;entryX=0.5;entryY=0;entryDx=0;entryDy=0;" edge="1" parent="1" source="K5OYbm_Al2ddz-POUuhQ-455" target="K5OYbm_Al2ddz-POUuhQ-468">
          <mxGeometry relative="1" as="geometry" />
        </mxCell>
        <mxCell id="K5OYbm_Al2ddz-POUuhQ-454" style="edgeStyle=orthogonalEdgeStyle;rounded=0;orthogonalLoop=1;jettySize=auto;html=1;entryX=0.5;entryY=0;entryDx=0;entryDy=0;" edge="1" parent="1" source="K5OYbm_Al2ddz-POUuhQ-455" target="K5OYbm_Al2ddz-POUuhQ-471">
          <mxGeometry relative="1" as="geometry" />
        </mxCell>
        <mxCell id="K5OYbm_Al2ddz-POUuhQ-455" value="Perdesaan" style="rounded=0;whiteSpace=wrap;html=1;" vertex="1" parent="1">
          <mxGeometry x="1090" y="280" width="120" height="40" as="geometry" />
        </mxCell>
        <mxCell id="K5OYbm_Al2ddz-POUuhQ-456" style="edgeStyle=orthogonalEdgeStyle;rounded=0;orthogonalLoop=1;jettySize=auto;html=1;entryX=0.5;entryY=0;entryDx=0;entryDy=0;exitX=0;exitY=0.5;exitDx=0;exitDy=0;" edge="1" parent="1" source="K5OYbm_Al2ddz-POUuhQ-458" target="K5OYbm_Al2ddz-POUuhQ-462">
          <mxGeometry relative="1" as="geometry">
            <Array as="points">
              <mxPoint x="380" y="360" />
            </Array>
          </mxGeometry>
        </mxCell>
        <mxCell id="K5OYbm_Al2ddz-POUuhQ-457" style="edgeStyle=orthogonalEdgeStyle;rounded=0;orthogonalLoop=1;jettySize=auto;html=1;entryX=0.5;entryY=0;entryDx=0;entryDy=0;exitX=1;exitY=0.5;exitDx=0;exitDy=0;" edge="1" parent="1" source="K5OYbm_Al2ddz-POUuhQ-458" target="K5OYbm_Al2ddz-POUuhQ-463">
          <mxGeometry relative="1" as="geometry">
            <Array as="points">
              <mxPoint x="520" y="360" />
            </Array>
          </mxGeometry>
        </mxCell>
        <mxCell id="K5OYbm_Al2ddz-POUuhQ-458" value="Semester 1" style="rounded=0;whiteSpace=wrap;html=1;" vertex="1" parent="1">
          <mxGeometry x="390" y="340" width="120" height="40" as="geometry" />
        </mxCell>
        <mxCell id="K5OYbm_Al2ddz-POUuhQ-459" style="edgeStyle=orthogonalEdgeStyle;rounded=0;orthogonalLoop=1;jettySize=auto;html=1;entryX=0.5;entryY=0;entryDx=0;entryDy=0;exitX=0;exitY=0.5;exitDx=0;exitDy=0;" edge="1" parent="1" source="K5OYbm_Al2ddz-POUuhQ-461" target="K5OYbm_Al2ddz-POUuhQ-464">
          <mxGeometry relative="1" as="geometry">
            <Array as="points">
              <mxPoint x="660" y="360" />
            </Array>
          </mxGeometry>
        </mxCell>
        <mxCell id="K5OYbm_Al2ddz-POUuhQ-460" style="edgeStyle=orthogonalEdgeStyle;rounded=0;orthogonalLoop=1;jettySize=auto;html=1;entryX=0.5;entryY=0;entryDx=0;entryDy=0;exitX=1;exitY=0.5;exitDx=0;exitDy=0;" edge="1" parent="1" source="K5OYbm_Al2ddz-POUuhQ-461" target="K5OYbm_Al2ddz-POUuhQ-465">
          <mxGeometry relative="1" as="geometry">
            <Array as="points">
              <mxPoint x="800" y="360" />
            </Array>
          </mxGeometry>
        </mxCell>
        <mxCell id="K5OYbm_Al2ddz-POUuhQ-461" value="Semester 2" style="rounded=0;whiteSpace=wrap;html=1;" vertex="1" parent="1">
          <mxGeometry x="670" y="340" width="120" height="40" as="geometry" />
        </mxCell>
        <mxCell id="K5OYbm_Al2ddz-POUuhQ-462" value="Harga Berlaku" style="rounded=0;whiteSpace=wrap;html=1;" vertex="1" parent="1">
          <mxGeometry x="320" y="400" width="120" height="40" as="geometry" />
        </mxCell>
        <mxCell id="K5OYbm_Al2ddz-POUuhQ-463" value="Harga Konstan 2010" style="rounded=0;whiteSpace=wrap;html=1;" vertex="1" parent="1">
          <mxGeometry x="460" y="400" width="120" height="40" as="geometry" />
        </mxCell>
        <mxCell id="K5OYbm_Al2ddz-POUuhQ-464" value="Harga Berlaku" style="rounded=0;whiteSpace=wrap;html=1;" vertex="1" parent="1">
          <mxGeometry x="600" y="400" width="120" height="40" as="geometry" />
        </mxCell>
        <mxCell id="K5OYbm_Al2ddz-POUuhQ-465" value="Harga Konstan 2010" style="rounded=0;whiteSpace=wrap;html=1;" vertex="1" parent="1">
          <mxGeometry x="740" y="400" width="120" height="40" as="geometry" />
        </mxCell>
        <mxCell id="K5OYbm_Al2ddz-POUuhQ-466" style="edgeStyle=orthogonalEdgeStyle;rounded=0;orthogonalLoop=1;jettySize=auto;html=1;entryX=0.5;entryY=0;entryDx=0;entryDy=0;exitX=0;exitY=0.5;exitDx=0;exitDy=0;" edge="1" parent="1" source="K5OYbm_Al2ddz-POUuhQ-468" target="K5OYbm_Al2ddz-POUuhQ-472">
          <mxGeometry relative="1" as="geometry">
            <Array as="points">
              <mxPoint x="940" y="360" />
            </Array>
          </mxGeometry>
        </mxCell>
        <mxCell id="K5OYbm_Al2ddz-POUuhQ-467" style="edgeStyle=orthogonalEdgeStyle;rounded=0;orthogonalLoop=1;jettySize=auto;html=1;entryX=0.5;entryY=0;entryDx=0;entryDy=0;exitX=1;exitY=0.5;exitDx=0;exitDy=0;" edge="1" parent="1" source="K5OYbm_Al2ddz-POUuhQ-468" target="K5OYbm_Al2ddz-POUuhQ-473">
          <mxGeometry relative="1" as="geometry">
            <Array as="points">
              <mxPoint x="1080" y="360" />
            </Array>
          </mxGeometry>
        </mxCell>
        <mxCell id="K5OYbm_Al2ddz-POUuhQ-468" value="Semester 1" style="rounded=0;whiteSpace=wrap;html=1;" vertex="1" parent="1">
          <mxGeometry x="950" y="340" width="120" height="40" as="geometry" />
        </mxCell>
        <mxCell id="K5OYbm_Al2ddz-POUuhQ-469" style="edgeStyle=orthogonalEdgeStyle;rounded=0;orthogonalLoop=1;jettySize=auto;html=1;entryX=0.5;entryY=0;entryDx=0;entryDy=0;exitX=0;exitY=0.5;exitDx=0;exitDy=0;" edge="1" parent="1" source="K5OYbm_Al2ddz-POUuhQ-471" target="K5OYbm_Al2ddz-POUuhQ-474">
          <mxGeometry relative="1" as="geometry">
            <Array as="points">
              <mxPoint x="1220" y="360" />
            </Array>
          </mxGeometry>
        </mxCell>
        <mxCell id="K5OYbm_Al2ddz-POUuhQ-470" style="edgeStyle=orthogonalEdgeStyle;rounded=0;orthogonalLoop=1;jettySize=auto;html=1;entryX=0.5;entryY=0;entryDx=0;entryDy=0;exitX=1;exitY=0.5;exitDx=0;exitDy=0;" edge="1" parent="1" source="K5OYbm_Al2ddz-POUuhQ-471" target="K5OYbm_Al2ddz-POUuhQ-475">
          <mxGeometry relative="1" as="geometry">
            <Array as="points">
              <mxPoint x="1360" y="360" />
            </Array>
          </mxGeometry>
        </mxCell>
        <mxCell id="K5OYbm_Al2ddz-POUuhQ-471" value="Semester 2" style="rounded=0;whiteSpace=wrap;html=1;" vertex="1" parent="1">
          <mxGeometry x="1230" y="340" width="120" height="40" as="geometry" />
        </mxCell>
        <mxCell id="K5OYbm_Al2ddz-POUuhQ-472" value="Harga Berlaku" style="rounded=0;whiteSpace=wrap;html=1;" vertex="1" parent="1">
          <mxGeometry x="880" y="400" width="120" height="40" as="geometry" />
        </mxCell>
        <mxCell id="K5OYbm_Al2ddz-POUuhQ-473" value="Harga Konstan 2010" style="rounded=0;whiteSpace=wrap;html=1;" vertex="1" parent="1">
          <mxGeometry x="1020" y="400" width="120" height="40" as="geometry" />
        </mxCell>
        <mxCell id="K5OYbm_Al2ddz-POUuhQ-474" value="Harga Berlaku" style="rounded=0;whiteSpace=wrap;html=1;" vertex="1" parent="1">
          <mxGeometry x="1160" y="400" width="120" height="40" as="geometry" />
        </mxCell>
        <mxCell id="K5OYbm_Al2ddz-POUuhQ-475" value="Harga Konstan 2010" style="rounded=0;whiteSpace=wrap;html=1;" vertex="1" parent="1">
          <mxGeometry x="1300" y="400" width="120" height="40" as="geometry" />
        </mxCell>
        <mxCell id="K5OYbm_Al2ddz-POUuhQ-480" style="edgeStyle=orthogonalEdgeStyle;rounded=0;orthogonalLoop=1;jettySize=auto;html=1;entryX=0.5;entryY=0;entryDx=0;entryDy=0;" edge="1" parent="1" source="K5OYbm_Al2ddz-POUuhQ-482" target="K5OYbm_Al2ddz-POUuhQ-488">
          <mxGeometry relative="1" as="geometry" />
        </mxCell>
        <mxCell id="K5OYbm_Al2ddz-POUuhQ-481" style="edgeStyle=orthogonalEdgeStyle;rounded=0;orthogonalLoop=1;jettySize=auto;html=1;entryX=0.5;entryY=0;entryDx=0;entryDy=0;" edge="1" parent="1" source="K5OYbm_Al2ddz-POUuhQ-482" target="K5OYbm_Al2ddz-POUuhQ-491">
          <mxGeometry relative="1" as="geometry" />
        </mxCell>
        <mxCell id="K5OYbm_Al2ddz-POUuhQ-482" value="Gizi Buruk" style="rounded=0;whiteSpace=wrap;html=1;" vertex="1" parent="1">
          <mxGeometry x="1930" y="220" width="120" height="40" as="geometry" />
        </mxCell>
        <mxCell id="K5OYbm_Al2ddz-POUuhQ-483" style="edgeStyle=orthogonalEdgeStyle;rounded=0;orthogonalLoop=1;jettySize=auto;html=1;entryX=0.5;entryY=0;entryDx=0;entryDy=0;" edge="1" parent="1" source="K5OYbm_Al2ddz-POUuhQ-485" target="K5OYbm_Al2ddz-POUuhQ-514">
          <mxGeometry relative="1" as="geometry" />
        </mxCell>
        <mxCell id="K5OYbm_Al2ddz-POUuhQ-484" style="edgeStyle=orthogonalEdgeStyle;rounded=0;orthogonalLoop=1;jettySize=auto;html=1;entryX=0.5;entryY=0;entryDx=0;entryDy=0;" edge="1" parent="1" source="K5OYbm_Al2ddz-POUuhQ-485" target="K5OYbm_Al2ddz-POUuhQ-517">
          <mxGeometry relative="1" as="geometry" />
        </mxCell>
        <mxCell id="K5OYbm_Al2ddz-POUuhQ-485" value="Gizi Kurang" style="rounded=0;whiteSpace=wrap;html=1;" vertex="1" parent="1">
          <mxGeometry x="3050" y="220" width="120" height="40" as="geometry" />
        </mxCell>
        <mxCell id="K5OYbm_Al2ddz-POUuhQ-486" style="edgeStyle=orthogonalEdgeStyle;rounded=0;orthogonalLoop=1;jettySize=auto;html=1;entryX=0.5;entryY=0;entryDx=0;entryDy=0;" edge="1" parent="1" source="K5OYbm_Al2ddz-POUuhQ-488" target="K5OYbm_Al2ddz-POUuhQ-494">
          <mxGeometry relative="1" as="geometry" />
        </mxCell>
        <mxCell id="K5OYbm_Al2ddz-POUuhQ-487" style="edgeStyle=orthogonalEdgeStyle;rounded=0;orthogonalLoop=1;jettySize=auto;html=1;entryX=0.5;entryY=0;entryDx=0;entryDy=0;" edge="1" parent="1" source="K5OYbm_Al2ddz-POUuhQ-488" target="K5OYbm_Al2ddz-POUuhQ-497">
          <mxGeometry relative="1" as="geometry" />
        </mxCell>
        <mxCell id="K5OYbm_Al2ddz-POUuhQ-488" value="Perkotaan" style="rounded=0;whiteSpace=wrap;html=1;" vertex="1" parent="1">
          <mxGeometry x="1650" y="280" width="120" height="40" as="geometry" />
        </mxCell>
        <mxCell id="K5OYbm_Al2ddz-POUuhQ-489" style="edgeStyle=orthogonalEdgeStyle;rounded=0;orthogonalLoop=1;jettySize=auto;html=1;entryX=0.5;entryY=0;entryDx=0;entryDy=0;" edge="1" parent="1" source="K5OYbm_Al2ddz-POUuhQ-491" target="K5OYbm_Al2ddz-POUuhQ-504">
          <mxGeometry relative="1" as="geometry" />
        </mxCell>
        <mxCell id="K5OYbm_Al2ddz-POUuhQ-490" style="edgeStyle=orthogonalEdgeStyle;rounded=0;orthogonalLoop=1;jettySize=auto;html=1;entryX=0.5;entryY=0;entryDx=0;entryDy=0;" edge="1" parent="1" source="K5OYbm_Al2ddz-POUuhQ-491" target="K5OYbm_Al2ddz-POUuhQ-507">
          <mxGeometry relative="1" as="geometry" />
        </mxCell>
        <mxCell id="K5OYbm_Al2ddz-POUuhQ-491" value="Perdesaan" style="rounded=0;whiteSpace=wrap;html=1;" vertex="1" parent="1">
          <mxGeometry x="2210" y="280" width="120" height="40" as="geometry" />
        </mxCell>
        <mxCell id="K5OYbm_Al2ddz-POUuhQ-492" style="edgeStyle=orthogonalEdgeStyle;rounded=0;orthogonalLoop=1;jettySize=auto;html=1;entryX=0.5;entryY=0;entryDx=0;entryDy=0;exitX=0;exitY=0.5;exitDx=0;exitDy=0;" edge="1" parent="1" source="K5OYbm_Al2ddz-POUuhQ-494" target="K5OYbm_Al2ddz-POUuhQ-498">
          <mxGeometry relative="1" as="geometry">
            <Array as="points">
              <mxPoint x="1500" y="360" />
            </Array>
          </mxGeometry>
        </mxCell>
        <mxCell id="K5OYbm_Al2ddz-POUuhQ-493" style="edgeStyle=orthogonalEdgeStyle;rounded=0;orthogonalLoop=1;jettySize=auto;html=1;entryX=0.5;entryY=0;entryDx=0;entryDy=0;exitX=1;exitY=0.5;exitDx=0;exitDy=0;" edge="1" parent="1" source="K5OYbm_Al2ddz-POUuhQ-494" target="K5OYbm_Al2ddz-POUuhQ-499">
          <mxGeometry relative="1" as="geometry">
            <Array as="points">
              <mxPoint x="1640" y="360" />
            </Array>
          </mxGeometry>
        </mxCell>
        <mxCell id="K5OYbm_Al2ddz-POUuhQ-494" value="Semester 1" style="rounded=0;whiteSpace=wrap;html=1;" vertex="1" parent="1">
          <mxGeometry x="1510" y="340" width="120" height="40" as="geometry" />
        </mxCell>
        <mxCell id="K5OYbm_Al2ddz-POUuhQ-495" style="edgeStyle=orthogonalEdgeStyle;rounded=0;orthogonalLoop=1;jettySize=auto;html=1;entryX=0.5;entryY=0;entryDx=0;entryDy=0;exitX=0;exitY=0.5;exitDx=0;exitDy=0;" edge="1" parent="1" source="K5OYbm_Al2ddz-POUuhQ-497" target="K5OYbm_Al2ddz-POUuhQ-500">
          <mxGeometry relative="1" as="geometry">
            <Array as="points">
              <mxPoint x="1780" y="360" />
            </Array>
          </mxGeometry>
        </mxCell>
        <mxCell id="K5OYbm_Al2ddz-POUuhQ-496" style="edgeStyle=orthogonalEdgeStyle;rounded=0;orthogonalLoop=1;jettySize=auto;html=1;entryX=0.5;entryY=0;entryDx=0;entryDy=0;exitX=1;exitY=0.5;exitDx=0;exitDy=0;" edge="1" parent="1" source="K5OYbm_Al2ddz-POUuhQ-497" target="K5OYbm_Al2ddz-POUuhQ-501">
          <mxGeometry relative="1" as="geometry">
            <Array as="points">
              <mxPoint x="1920" y="360" />
            </Array>
          </mxGeometry>
        </mxCell>
        <mxCell id="K5OYbm_Al2ddz-POUuhQ-497" value="Semester 2" style="rounded=0;whiteSpace=wrap;html=1;" vertex="1" parent="1">
          <mxGeometry x="1790" y="340" width="120" height="40" as="geometry" />
        </mxCell>
        <mxCell id="K5OYbm_Al2ddz-POUuhQ-498" value="Harga Berlaku" style="rounded=0;whiteSpace=wrap;html=1;" vertex="1" parent="1">
          <mxGeometry x="1440" y="400" width="120" height="40" as="geometry" />
        </mxCell>
        <mxCell id="K5OYbm_Al2ddz-POUuhQ-499" value="Harga Konstan 2010" style="rounded=0;whiteSpace=wrap;html=1;" vertex="1" parent="1">
          <mxGeometry x="1580" y="400" width="120" height="40" as="geometry" />
        </mxCell>
        <mxCell id="K5OYbm_Al2ddz-POUuhQ-500" value="Harga Berlaku" style="rounded=0;whiteSpace=wrap;html=1;" vertex="1" parent="1">
          <mxGeometry x="1720" y="400" width="120" height="40" as="geometry" />
        </mxCell>
        <mxCell id="K5OYbm_Al2ddz-POUuhQ-501" value="Harga Konstan 2010" style="rounded=0;whiteSpace=wrap;html=1;" vertex="1" parent="1">
          <mxGeometry x="1860" y="400" width="120" height="40" as="geometry" />
        </mxCell>
        <mxCell id="K5OYbm_Al2ddz-POUuhQ-502" style="edgeStyle=orthogonalEdgeStyle;rounded=0;orthogonalLoop=1;jettySize=auto;html=1;entryX=0.5;entryY=0;entryDx=0;entryDy=0;exitX=0;exitY=0.5;exitDx=0;exitDy=0;" edge="1" parent="1" source="K5OYbm_Al2ddz-POUuhQ-504" target="K5OYbm_Al2ddz-POUuhQ-508">
          <mxGeometry relative="1" as="geometry">
            <Array as="points">
              <mxPoint x="2060" y="360" />
            </Array>
          </mxGeometry>
        </mxCell>
        <mxCell id="K5OYbm_Al2ddz-POUuhQ-503" style="edgeStyle=orthogonalEdgeStyle;rounded=0;orthogonalLoop=1;jettySize=auto;html=1;entryX=0.5;entryY=0;entryDx=0;entryDy=0;exitX=1;exitY=0.5;exitDx=0;exitDy=0;" edge="1" parent="1" source="K5OYbm_Al2ddz-POUuhQ-504" target="K5OYbm_Al2ddz-POUuhQ-509">
          <mxGeometry relative="1" as="geometry">
            <Array as="points">
              <mxPoint x="2200" y="360" />
            </Array>
          </mxGeometry>
        </mxCell>
        <mxCell id="K5OYbm_Al2ddz-POUuhQ-504" value="Semester 1" style="rounded=0;whiteSpace=wrap;html=1;" vertex="1" parent="1">
          <mxGeometry x="2070" y="340" width="120" height="40" as="geometry" />
        </mxCell>
        <mxCell id="K5OYbm_Al2ddz-POUuhQ-505" style="edgeStyle=orthogonalEdgeStyle;rounded=0;orthogonalLoop=1;jettySize=auto;html=1;entryX=0.5;entryY=0;entryDx=0;entryDy=0;exitX=0;exitY=0.5;exitDx=0;exitDy=0;" edge="1" parent="1" source="K5OYbm_Al2ddz-POUuhQ-507" target="K5OYbm_Al2ddz-POUuhQ-510">
          <mxGeometry relative="1" as="geometry">
            <Array as="points">
              <mxPoint x="2340" y="360" />
            </Array>
          </mxGeometry>
        </mxCell>
        <mxCell id="K5OYbm_Al2ddz-POUuhQ-506" style="edgeStyle=orthogonalEdgeStyle;rounded=0;orthogonalLoop=1;jettySize=auto;html=1;entryX=0.5;entryY=0;entryDx=0;entryDy=0;exitX=1;exitY=0.5;exitDx=0;exitDy=0;" edge="1" parent="1" source="K5OYbm_Al2ddz-POUuhQ-507" target="K5OYbm_Al2ddz-POUuhQ-511">
          <mxGeometry relative="1" as="geometry">
            <Array as="points">
              <mxPoint x="2480" y="360" />
            </Array>
          </mxGeometry>
        </mxCell>
        <mxCell id="K5OYbm_Al2ddz-POUuhQ-507" value="Semester 2" style="rounded=0;whiteSpace=wrap;html=1;" vertex="1" parent="1">
          <mxGeometry x="2350" y="340" width="120" height="40" as="geometry" />
        </mxCell>
        <mxCell id="K5OYbm_Al2ddz-POUuhQ-508" value="Harga Berlaku" style="rounded=0;whiteSpace=wrap;html=1;" vertex="1" parent="1">
          <mxGeometry x="2000" y="400" width="120" height="40" as="geometry" />
        </mxCell>
        <mxCell id="K5OYbm_Al2ddz-POUuhQ-509" value="Harga Konstan 2010" style="rounded=0;whiteSpace=wrap;html=1;" vertex="1" parent="1">
          <mxGeometry x="2140" y="400" width="120" height="40" as="geometry" />
        </mxCell>
        <mxCell id="K5OYbm_Al2ddz-POUuhQ-510" value="Harga Berlaku" style="rounded=0;whiteSpace=wrap;html=1;" vertex="1" parent="1">
          <mxGeometry x="2280" y="400" width="120" height="40" as="geometry" />
        </mxCell>
        <mxCell id="K5OYbm_Al2ddz-POUuhQ-511" value="Harga Konstan 2010" style="rounded=0;whiteSpace=wrap;html=1;" vertex="1" parent="1">
          <mxGeometry x="2420" y="400" width="120" height="40" as="geometry" />
        </mxCell>
        <mxCell id="K5OYbm_Al2ddz-POUuhQ-512" style="edgeStyle=orthogonalEdgeStyle;rounded=0;orthogonalLoop=1;jettySize=auto;html=1;entryX=0.5;entryY=0;entryDx=0;entryDy=0;" edge="1" parent="1" source="K5OYbm_Al2ddz-POUuhQ-514" target="K5OYbm_Al2ddz-POUuhQ-520">
          <mxGeometry relative="1" as="geometry" />
        </mxCell>
        <mxCell id="K5OYbm_Al2ddz-POUuhQ-513" style="edgeStyle=orthogonalEdgeStyle;rounded=0;orthogonalLoop=1;jettySize=auto;html=1;entryX=0.5;entryY=0;entryDx=0;entryDy=0;" edge="1" parent="1" source="K5OYbm_Al2ddz-POUuhQ-514" target="K5OYbm_Al2ddz-POUuhQ-523">
          <mxGeometry relative="1" as="geometry" />
        </mxCell>
        <mxCell id="K5OYbm_Al2ddz-POUuhQ-514" value="Perkotaan" style="rounded=0;whiteSpace=wrap;html=1;" vertex="1" parent="1">
          <mxGeometry x="2770" y="280" width="120" height="40" as="geometry" />
        </mxCell>
        <mxCell id="K5OYbm_Al2ddz-POUuhQ-515" style="edgeStyle=orthogonalEdgeStyle;rounded=0;orthogonalLoop=1;jettySize=auto;html=1;entryX=0.5;entryY=0;entryDx=0;entryDy=0;" edge="1" parent="1" source="K5OYbm_Al2ddz-POUuhQ-517" target="K5OYbm_Al2ddz-POUuhQ-530">
          <mxGeometry relative="1" as="geometry" />
        </mxCell>
        <mxCell id="K5OYbm_Al2ddz-POUuhQ-516" style="edgeStyle=orthogonalEdgeStyle;rounded=0;orthogonalLoop=1;jettySize=auto;html=1;entryX=0.5;entryY=0;entryDx=0;entryDy=0;" edge="1" parent="1" source="K5OYbm_Al2ddz-POUuhQ-517" target="K5OYbm_Al2ddz-POUuhQ-533">
          <mxGeometry relative="1" as="geometry" />
        </mxCell>
        <mxCell id="K5OYbm_Al2ddz-POUuhQ-517" value="Perdesaan" style="rounded=0;whiteSpace=wrap;html=1;" vertex="1" parent="1">
          <mxGeometry x="3330" y="280" width="120" height="40" as="geometry" />
        </mxCell>
        <mxCell id="K5OYbm_Al2ddz-POUuhQ-518" style="edgeStyle=orthogonalEdgeStyle;rounded=0;orthogonalLoop=1;jettySize=auto;html=1;entryX=0.5;entryY=0;entryDx=0;entryDy=0;exitX=0;exitY=0.5;exitDx=0;exitDy=0;" edge="1" parent="1" source="K5OYbm_Al2ddz-POUuhQ-520" target="K5OYbm_Al2ddz-POUuhQ-524">
          <mxGeometry relative="1" as="geometry">
            <Array as="points">
              <mxPoint x="2620" y="360" />
            </Array>
          </mxGeometry>
        </mxCell>
        <mxCell id="K5OYbm_Al2ddz-POUuhQ-519" style="edgeStyle=orthogonalEdgeStyle;rounded=0;orthogonalLoop=1;jettySize=auto;html=1;entryX=0.5;entryY=0;entryDx=0;entryDy=0;exitX=1;exitY=0.5;exitDx=0;exitDy=0;" edge="1" parent="1" source="K5OYbm_Al2ddz-POUuhQ-520" target="K5OYbm_Al2ddz-POUuhQ-525">
          <mxGeometry relative="1" as="geometry">
            <Array as="points">
              <mxPoint x="2760" y="360" />
            </Array>
          </mxGeometry>
        </mxCell>
        <mxCell id="K5OYbm_Al2ddz-POUuhQ-520" value="Semester 1" style="rounded=0;whiteSpace=wrap;html=1;" vertex="1" parent="1">
          <mxGeometry x="2630" y="340" width="120" height="40" as="geometry" />
        </mxCell>
        <mxCell id="K5OYbm_Al2ddz-POUuhQ-521" style="edgeStyle=orthogonalEdgeStyle;rounded=0;orthogonalLoop=1;jettySize=auto;html=1;entryX=0.5;entryY=0;entryDx=0;entryDy=0;exitX=0;exitY=0.5;exitDx=0;exitDy=0;" edge="1" parent="1" source="K5OYbm_Al2ddz-POUuhQ-523" target="K5OYbm_Al2ddz-POUuhQ-526">
          <mxGeometry relative="1" as="geometry">
            <Array as="points">
              <mxPoint x="2900" y="360" />
            </Array>
          </mxGeometry>
        </mxCell>
        <mxCell id="K5OYbm_Al2ddz-POUuhQ-522" style="edgeStyle=orthogonalEdgeStyle;rounded=0;orthogonalLoop=1;jettySize=auto;html=1;entryX=0.5;entryY=0;entryDx=0;entryDy=0;exitX=1;exitY=0.5;exitDx=0;exitDy=0;" edge="1" parent="1" source="K5OYbm_Al2ddz-POUuhQ-523" target="K5OYbm_Al2ddz-POUuhQ-527">
          <mxGeometry relative="1" as="geometry">
            <Array as="points">
              <mxPoint x="3040" y="360" />
            </Array>
          </mxGeometry>
        </mxCell>
        <mxCell id="K5OYbm_Al2ddz-POUuhQ-523" value="Semester 2" style="rounded=0;whiteSpace=wrap;html=1;" vertex="1" parent="1">
          <mxGeometry x="2910" y="340" width="120" height="40" as="geometry" />
        </mxCell>
        <mxCell id="K5OYbm_Al2ddz-POUuhQ-524" value="Harga Berlaku" style="rounded=0;whiteSpace=wrap;html=1;" vertex="1" parent="1">
          <mxGeometry x="2560" y="400" width="120" height="40" as="geometry" />
        </mxCell>
        <mxCell id="K5OYbm_Al2ddz-POUuhQ-525" value="Harga Konstan 2010" style="rounded=0;whiteSpace=wrap;html=1;" vertex="1" parent="1">
          <mxGeometry x="2700" y="400" width="120" height="40" as="geometry" />
        </mxCell>
        <mxCell id="K5OYbm_Al2ddz-POUuhQ-526" value="Harga Berlaku" style="rounded=0;whiteSpace=wrap;html=1;" vertex="1" parent="1">
          <mxGeometry x="2840" y="400" width="120" height="40" as="geometry" />
        </mxCell>
        <mxCell id="K5OYbm_Al2ddz-POUuhQ-527" value="Harga Konstan 2010" style="rounded=0;whiteSpace=wrap;html=1;" vertex="1" parent="1">
          <mxGeometry x="2980" y="400" width="120" height="40" as="geometry" />
        </mxCell>
        <mxCell id="K5OYbm_Al2ddz-POUuhQ-528" style="edgeStyle=orthogonalEdgeStyle;rounded=0;orthogonalLoop=1;jettySize=auto;html=1;entryX=0.5;entryY=0;entryDx=0;entryDy=0;exitX=0;exitY=0.5;exitDx=0;exitDy=0;" edge="1" parent="1" source="K5OYbm_Al2ddz-POUuhQ-530" target="K5OYbm_Al2ddz-POUuhQ-534">
          <mxGeometry relative="1" as="geometry">
            <Array as="points">
              <mxPoint x="3180" y="360" />
            </Array>
          </mxGeometry>
        </mxCell>
        <mxCell id="K5OYbm_Al2ddz-POUuhQ-529" style="edgeStyle=orthogonalEdgeStyle;rounded=0;orthogonalLoop=1;jettySize=auto;html=1;entryX=0.5;entryY=0;entryDx=0;entryDy=0;exitX=1;exitY=0.5;exitDx=0;exitDy=0;" edge="1" parent="1" source="K5OYbm_Al2ddz-POUuhQ-530" target="K5OYbm_Al2ddz-POUuhQ-535">
          <mxGeometry relative="1" as="geometry">
            <Array as="points">
              <mxPoint x="3320" y="360" />
            </Array>
          </mxGeometry>
        </mxCell>
        <mxCell id="K5OYbm_Al2ddz-POUuhQ-530" value="Semester 1" style="rounded=0;whiteSpace=wrap;html=1;" vertex="1" parent="1">
          <mxGeometry x="3190" y="340" width="120" height="40" as="geometry" />
        </mxCell>
        <mxCell id="K5OYbm_Al2ddz-POUuhQ-531" style="edgeStyle=orthogonalEdgeStyle;rounded=0;orthogonalLoop=1;jettySize=auto;html=1;entryX=0.5;entryY=0;entryDx=0;entryDy=0;exitX=0;exitY=0.5;exitDx=0;exitDy=0;" edge="1" parent="1" source="K5OYbm_Al2ddz-POUuhQ-533" target="K5OYbm_Al2ddz-POUuhQ-536">
          <mxGeometry relative="1" as="geometry">
            <Array as="points">
              <mxPoint x="3460" y="360" />
            </Array>
          </mxGeometry>
        </mxCell>
        <mxCell id="K5OYbm_Al2ddz-POUuhQ-532" style="edgeStyle=orthogonalEdgeStyle;rounded=0;orthogonalLoop=1;jettySize=auto;html=1;entryX=0.5;entryY=0;entryDx=0;entryDy=0;exitX=1;exitY=0.5;exitDx=0;exitDy=0;" edge="1" parent="1" source="K5OYbm_Al2ddz-POUuhQ-533" target="K5OYbm_Al2ddz-POUuhQ-537">
          <mxGeometry relative="1" as="geometry">
            <Array as="points">
              <mxPoint x="3600" y="360" />
            </Array>
          </mxGeometry>
        </mxCell>
        <mxCell id="K5OYbm_Al2ddz-POUuhQ-533" value="Semester 2" style="rounded=0;whiteSpace=wrap;html=1;" vertex="1" parent="1">
          <mxGeometry x="3470" y="340" width="120" height="40" as="geometry" />
        </mxCell>
        <mxCell id="K5OYbm_Al2ddz-POUuhQ-534" value="Harga Berlaku" style="rounded=0;whiteSpace=wrap;html=1;" vertex="1" parent="1">
          <mxGeometry x="3120" y="400" width="120" height="40" as="geometry" />
        </mxCell>
        <mxCell id="K5OYbm_Al2ddz-POUuhQ-535" value="Harga Konstan 2010" style="rounded=0;whiteSpace=wrap;html=1;" vertex="1" parent="1">
          <mxGeometry x="3260" y="400" width="120" height="40" as="geometry" />
        </mxCell>
        <mxCell id="K5OYbm_Al2ddz-POUuhQ-536" value="Harga Berlaku" style="rounded=0;whiteSpace=wrap;html=1;" vertex="1" parent="1">
          <mxGeometry x="3400" y="400" width="120" height="40" as="geometry" />
        </mxCell>
        <mxCell id="K5OYbm_Al2ddz-POUuhQ-537" value="Harga Konstan 2010" style="rounded=0;whiteSpace=wrap;html=1;" vertex="1" parent="1">
          <mxGeometry x="3540" y="400" width="120" height="40" as="geometry" />
        </mxCell>
        <mxCell id="K5OYbm_Al2ddz-POUuhQ-542" style="edgeStyle=orthogonalEdgeStyle;rounded=0;orthogonalLoop=1;jettySize=auto;html=1;entryX=0.5;entryY=0;entryDx=0;entryDy=0;" edge="1" parent="1" source="K5OYbm_Al2ddz-POUuhQ-544" target="K5OYbm_Al2ddz-POUuhQ-550">
          <mxGeometry relative="1" as="geometry" />
        </mxCell>
        <mxCell id="K5OYbm_Al2ddz-POUuhQ-543" style="edgeStyle=orthogonalEdgeStyle;rounded=0;orthogonalLoop=1;jettySize=auto;html=1;entryX=0.5;entryY=0;entryDx=0;entryDy=0;" edge="1" parent="1" source="K5OYbm_Al2ddz-POUuhQ-544" target="K5OYbm_Al2ddz-POUuhQ-553">
          <mxGeometry relative="1" as="geometry" />
        </mxCell>
        <mxCell id="K5OYbm_Al2ddz-POUuhQ-544" value="Sangat Pendek" style="rounded=0;whiteSpace=wrap;html=1;" vertex="1" parent="1">
          <mxGeometry x="4730" y="160" width="120" height="40" as="geometry" />
        </mxCell>
        <mxCell id="K5OYbm_Al2ddz-POUuhQ-545" style="edgeStyle=orthogonalEdgeStyle;rounded=0;orthogonalLoop=1;jettySize=auto;html=1;entryX=0.5;entryY=0;entryDx=0;entryDy=0;" edge="1" parent="1" source="K5OYbm_Al2ddz-POUuhQ-547" target="K5OYbm_Al2ddz-POUuhQ-608">
          <mxGeometry relative="1" as="geometry" />
        </mxCell>
        <mxCell id="K5OYbm_Al2ddz-POUuhQ-546" style="edgeStyle=orthogonalEdgeStyle;rounded=0;orthogonalLoop=1;jettySize=auto;html=1;entryX=0.5;entryY=0;entryDx=0;entryDy=0;" edge="1" parent="1" source="K5OYbm_Al2ddz-POUuhQ-547" target="K5OYbm_Al2ddz-POUuhQ-611">
          <mxGeometry relative="1" as="geometry" />
        </mxCell>
        <mxCell id="K5OYbm_Al2ddz-POUuhQ-547" value="Pendek" style="rounded=0;whiteSpace=wrap;html=1;" vertex="1" parent="1">
          <mxGeometry x="6970" y="160" width="120" height="40" as="geometry" />
        </mxCell>
        <mxCell id="K5OYbm_Al2ddz-POUuhQ-548" style="edgeStyle=orthogonalEdgeStyle;rounded=0;orthogonalLoop=1;jettySize=auto;html=1;entryX=0.5;entryY=0;entryDx=0;entryDy=0;" edge="1" parent="1" source="K5OYbm_Al2ddz-POUuhQ-550" target="K5OYbm_Al2ddz-POUuhQ-556">
          <mxGeometry relative="1" as="geometry" />
        </mxCell>
        <mxCell id="K5OYbm_Al2ddz-POUuhQ-549" style="edgeStyle=orthogonalEdgeStyle;rounded=0;orthogonalLoop=1;jettySize=auto;html=1;entryX=0.5;entryY=0;entryDx=0;entryDy=0;" edge="1" parent="1" source="K5OYbm_Al2ddz-POUuhQ-550" target="K5OYbm_Al2ddz-POUuhQ-559">
          <mxGeometry relative="1" as="geometry" />
        </mxCell>
        <mxCell id="K5OYbm_Al2ddz-POUuhQ-550" value="Gizi Buruk" style="rounded=0;whiteSpace=wrap;html=1;" vertex="1" parent="1">
          <mxGeometry x="4170" y="220" width="120" height="40" as="geometry" />
        </mxCell>
        <mxCell id="K5OYbm_Al2ddz-POUuhQ-551" style="edgeStyle=orthogonalEdgeStyle;rounded=0;orthogonalLoop=1;jettySize=auto;html=1;entryX=0.5;entryY=0;entryDx=0;entryDy=0;" edge="1" parent="1" source="K5OYbm_Al2ddz-POUuhQ-553" target="K5OYbm_Al2ddz-POUuhQ-582">
          <mxGeometry relative="1" as="geometry" />
        </mxCell>
        <mxCell id="K5OYbm_Al2ddz-POUuhQ-552" style="edgeStyle=orthogonalEdgeStyle;rounded=0;orthogonalLoop=1;jettySize=auto;html=1;entryX=0.5;entryY=0;entryDx=0;entryDy=0;" edge="1" parent="1" source="K5OYbm_Al2ddz-POUuhQ-553" target="K5OYbm_Al2ddz-POUuhQ-585">
          <mxGeometry relative="1" as="geometry" />
        </mxCell>
        <mxCell id="K5OYbm_Al2ddz-POUuhQ-553" value="Gizi Kurang" style="rounded=0;whiteSpace=wrap;html=1;" vertex="1" parent="1">
          <mxGeometry x="5290" y="220" width="120" height="40" as="geometry" />
        </mxCell>
        <mxCell id="K5OYbm_Al2ddz-POUuhQ-554" style="edgeStyle=orthogonalEdgeStyle;rounded=0;orthogonalLoop=1;jettySize=auto;html=1;entryX=0.5;entryY=0;entryDx=0;entryDy=0;" edge="1" parent="1" source="K5OYbm_Al2ddz-POUuhQ-556" target="K5OYbm_Al2ddz-POUuhQ-562">
          <mxGeometry relative="1" as="geometry" />
        </mxCell>
        <mxCell id="K5OYbm_Al2ddz-POUuhQ-555" style="edgeStyle=orthogonalEdgeStyle;rounded=0;orthogonalLoop=1;jettySize=auto;html=1;entryX=0.5;entryY=0;entryDx=0;entryDy=0;" edge="1" parent="1" source="K5OYbm_Al2ddz-POUuhQ-556" target="K5OYbm_Al2ddz-POUuhQ-565">
          <mxGeometry relative="1" as="geometry" />
        </mxCell>
        <mxCell id="K5OYbm_Al2ddz-POUuhQ-556" value="Perkotaan" style="rounded=0;whiteSpace=wrap;html=1;" vertex="1" parent="1">
          <mxGeometry x="3890" y="280" width="120" height="40" as="geometry" />
        </mxCell>
        <mxCell id="K5OYbm_Al2ddz-POUuhQ-557" style="edgeStyle=orthogonalEdgeStyle;rounded=0;orthogonalLoop=1;jettySize=auto;html=1;entryX=0.5;entryY=0;entryDx=0;entryDy=0;" edge="1" parent="1" source="K5OYbm_Al2ddz-POUuhQ-559" target="K5OYbm_Al2ddz-POUuhQ-572">
          <mxGeometry relative="1" as="geometry" />
        </mxCell>
        <mxCell id="K5OYbm_Al2ddz-POUuhQ-558" style="edgeStyle=orthogonalEdgeStyle;rounded=0;orthogonalLoop=1;jettySize=auto;html=1;entryX=0.5;entryY=0;entryDx=0;entryDy=0;" edge="1" parent="1" source="K5OYbm_Al2ddz-POUuhQ-559" target="K5OYbm_Al2ddz-POUuhQ-575">
          <mxGeometry relative="1" as="geometry" />
        </mxCell>
        <mxCell id="K5OYbm_Al2ddz-POUuhQ-559" value="Perdesaan" style="rounded=0;whiteSpace=wrap;html=1;" vertex="1" parent="1">
          <mxGeometry x="4450" y="280" width="120" height="40" as="geometry" />
        </mxCell>
        <mxCell id="K5OYbm_Al2ddz-POUuhQ-560" style="edgeStyle=orthogonalEdgeStyle;rounded=0;orthogonalLoop=1;jettySize=auto;html=1;entryX=0.5;entryY=0;entryDx=0;entryDy=0;exitX=0;exitY=0.5;exitDx=0;exitDy=0;" edge="1" parent="1" source="K5OYbm_Al2ddz-POUuhQ-562" target="K5OYbm_Al2ddz-POUuhQ-566">
          <mxGeometry relative="1" as="geometry">
            <Array as="points">
              <mxPoint x="3740" y="360" />
            </Array>
          </mxGeometry>
        </mxCell>
        <mxCell id="K5OYbm_Al2ddz-POUuhQ-561" style="edgeStyle=orthogonalEdgeStyle;rounded=0;orthogonalLoop=1;jettySize=auto;html=1;entryX=0.5;entryY=0;entryDx=0;entryDy=0;exitX=1;exitY=0.5;exitDx=0;exitDy=0;" edge="1" parent="1" source="K5OYbm_Al2ddz-POUuhQ-562" target="K5OYbm_Al2ddz-POUuhQ-567">
          <mxGeometry relative="1" as="geometry">
            <Array as="points">
              <mxPoint x="3880" y="360" />
            </Array>
          </mxGeometry>
        </mxCell>
        <mxCell id="K5OYbm_Al2ddz-POUuhQ-562" value="Semester 1" style="rounded=0;whiteSpace=wrap;html=1;" vertex="1" parent="1">
          <mxGeometry x="3750" y="340" width="120" height="40" as="geometry" />
        </mxCell>
        <mxCell id="K5OYbm_Al2ddz-POUuhQ-563" style="edgeStyle=orthogonalEdgeStyle;rounded=0;orthogonalLoop=1;jettySize=auto;html=1;entryX=0.5;entryY=0;entryDx=0;entryDy=0;exitX=0;exitY=0.5;exitDx=0;exitDy=0;" edge="1" parent="1" source="K5OYbm_Al2ddz-POUuhQ-565" target="K5OYbm_Al2ddz-POUuhQ-568">
          <mxGeometry relative="1" as="geometry">
            <Array as="points">
              <mxPoint x="4020" y="360" />
            </Array>
          </mxGeometry>
        </mxCell>
        <mxCell id="K5OYbm_Al2ddz-POUuhQ-564" style="edgeStyle=orthogonalEdgeStyle;rounded=0;orthogonalLoop=1;jettySize=auto;html=1;entryX=0.5;entryY=0;entryDx=0;entryDy=0;exitX=1;exitY=0.5;exitDx=0;exitDy=0;" edge="1" parent="1" source="K5OYbm_Al2ddz-POUuhQ-565" target="K5OYbm_Al2ddz-POUuhQ-569">
          <mxGeometry relative="1" as="geometry">
            <Array as="points">
              <mxPoint x="4160" y="360" />
            </Array>
          </mxGeometry>
        </mxCell>
        <mxCell id="K5OYbm_Al2ddz-POUuhQ-565" value="Semester 2" style="rounded=0;whiteSpace=wrap;html=1;" vertex="1" parent="1">
          <mxGeometry x="4030" y="340" width="120" height="40" as="geometry" />
        </mxCell>
        <mxCell id="K5OYbm_Al2ddz-POUuhQ-566" value="Harga Berlaku" style="rounded=0;whiteSpace=wrap;html=1;" vertex="1" parent="1">
          <mxGeometry x="3680" y="400" width="120" height="40" as="geometry" />
        </mxCell>
        <mxCell id="K5OYbm_Al2ddz-POUuhQ-567" value="Harga Konstan 2010" style="rounded=0;whiteSpace=wrap;html=1;" vertex="1" parent="1">
          <mxGeometry x="3820" y="400" width="120" height="40" as="geometry" />
        </mxCell>
        <mxCell id="K5OYbm_Al2ddz-POUuhQ-568" value="Harga Berlaku" style="rounded=0;whiteSpace=wrap;html=1;" vertex="1" parent="1">
          <mxGeometry x="3960" y="400" width="120" height="40" as="geometry" />
        </mxCell>
        <mxCell id="K5OYbm_Al2ddz-POUuhQ-569" value="Harga Konstan 2010" style="rounded=0;whiteSpace=wrap;html=1;" vertex="1" parent="1">
          <mxGeometry x="4100" y="400" width="120" height="40" as="geometry" />
        </mxCell>
        <mxCell id="K5OYbm_Al2ddz-POUuhQ-570" style="edgeStyle=orthogonalEdgeStyle;rounded=0;orthogonalLoop=1;jettySize=auto;html=1;entryX=0.5;entryY=0;entryDx=0;entryDy=0;exitX=0;exitY=0.5;exitDx=0;exitDy=0;" edge="1" parent="1" source="K5OYbm_Al2ddz-POUuhQ-572" target="K5OYbm_Al2ddz-POUuhQ-576">
          <mxGeometry relative="1" as="geometry">
            <Array as="points">
              <mxPoint x="4300" y="360" />
            </Array>
          </mxGeometry>
        </mxCell>
        <mxCell id="K5OYbm_Al2ddz-POUuhQ-571" style="edgeStyle=orthogonalEdgeStyle;rounded=0;orthogonalLoop=1;jettySize=auto;html=1;entryX=0.5;entryY=0;entryDx=0;entryDy=0;exitX=1;exitY=0.5;exitDx=0;exitDy=0;" edge="1" parent="1" source="K5OYbm_Al2ddz-POUuhQ-572" target="K5OYbm_Al2ddz-POUuhQ-577">
          <mxGeometry relative="1" as="geometry">
            <Array as="points">
              <mxPoint x="4440" y="360" />
            </Array>
          </mxGeometry>
        </mxCell>
        <mxCell id="K5OYbm_Al2ddz-POUuhQ-572" value="Semester 1" style="rounded=0;whiteSpace=wrap;html=1;" vertex="1" parent="1">
          <mxGeometry x="4310" y="340" width="120" height="40" as="geometry" />
        </mxCell>
        <mxCell id="K5OYbm_Al2ddz-POUuhQ-573" style="edgeStyle=orthogonalEdgeStyle;rounded=0;orthogonalLoop=1;jettySize=auto;html=1;entryX=0.5;entryY=0;entryDx=0;entryDy=0;exitX=0;exitY=0.5;exitDx=0;exitDy=0;" edge="1" parent="1" source="K5OYbm_Al2ddz-POUuhQ-575" target="K5OYbm_Al2ddz-POUuhQ-578">
          <mxGeometry relative="1" as="geometry">
            <Array as="points">
              <mxPoint x="4580" y="360" />
            </Array>
          </mxGeometry>
        </mxCell>
        <mxCell id="K5OYbm_Al2ddz-POUuhQ-574" style="edgeStyle=orthogonalEdgeStyle;rounded=0;orthogonalLoop=1;jettySize=auto;html=1;entryX=0.5;entryY=0;entryDx=0;entryDy=0;exitX=1;exitY=0.5;exitDx=0;exitDy=0;" edge="1" parent="1" source="K5OYbm_Al2ddz-POUuhQ-575" target="K5OYbm_Al2ddz-POUuhQ-579">
          <mxGeometry relative="1" as="geometry">
            <Array as="points">
              <mxPoint x="4720" y="360" />
            </Array>
          </mxGeometry>
        </mxCell>
        <mxCell id="K5OYbm_Al2ddz-POUuhQ-575" value="Semester 2" style="rounded=0;whiteSpace=wrap;html=1;" vertex="1" parent="1">
          <mxGeometry x="4590" y="340" width="120" height="40" as="geometry" />
        </mxCell>
        <mxCell id="K5OYbm_Al2ddz-POUuhQ-576" value="Harga Berlaku" style="rounded=0;whiteSpace=wrap;html=1;" vertex="1" parent="1">
          <mxGeometry x="4240" y="400" width="120" height="40" as="geometry" />
        </mxCell>
        <mxCell id="K5OYbm_Al2ddz-POUuhQ-577" value="Harga Konstan 2010" style="rounded=0;whiteSpace=wrap;html=1;" vertex="1" parent="1">
          <mxGeometry x="4380" y="400" width="120" height="40" as="geometry" />
        </mxCell>
        <mxCell id="K5OYbm_Al2ddz-POUuhQ-578" value="Harga Berlaku" style="rounded=0;whiteSpace=wrap;html=1;" vertex="1" parent="1">
          <mxGeometry x="4520" y="400" width="120" height="40" as="geometry" />
        </mxCell>
        <mxCell id="K5OYbm_Al2ddz-POUuhQ-579" value="Harga Konstan 2010" style="rounded=0;whiteSpace=wrap;html=1;" vertex="1" parent="1">
          <mxGeometry x="4660" y="400" width="120" height="40" as="geometry" />
        </mxCell>
        <mxCell id="K5OYbm_Al2ddz-POUuhQ-580" style="edgeStyle=orthogonalEdgeStyle;rounded=0;orthogonalLoop=1;jettySize=auto;html=1;entryX=0.5;entryY=0;entryDx=0;entryDy=0;" edge="1" parent="1" source="K5OYbm_Al2ddz-POUuhQ-582" target="K5OYbm_Al2ddz-POUuhQ-588">
          <mxGeometry relative="1" as="geometry" />
        </mxCell>
        <mxCell id="K5OYbm_Al2ddz-POUuhQ-581" style="edgeStyle=orthogonalEdgeStyle;rounded=0;orthogonalLoop=1;jettySize=auto;html=1;entryX=0.5;entryY=0;entryDx=0;entryDy=0;" edge="1" parent="1" source="K5OYbm_Al2ddz-POUuhQ-582" target="K5OYbm_Al2ddz-POUuhQ-591">
          <mxGeometry relative="1" as="geometry" />
        </mxCell>
        <mxCell id="K5OYbm_Al2ddz-POUuhQ-582" value="Perkotaan" style="rounded=0;whiteSpace=wrap;html=1;" vertex="1" parent="1">
          <mxGeometry x="5010" y="280" width="120" height="40" as="geometry" />
        </mxCell>
        <mxCell id="K5OYbm_Al2ddz-POUuhQ-583" style="edgeStyle=orthogonalEdgeStyle;rounded=0;orthogonalLoop=1;jettySize=auto;html=1;entryX=0.5;entryY=0;entryDx=0;entryDy=0;" edge="1" parent="1" source="K5OYbm_Al2ddz-POUuhQ-585" target="K5OYbm_Al2ddz-POUuhQ-598">
          <mxGeometry relative="1" as="geometry" />
        </mxCell>
        <mxCell id="K5OYbm_Al2ddz-POUuhQ-584" style="edgeStyle=orthogonalEdgeStyle;rounded=0;orthogonalLoop=1;jettySize=auto;html=1;entryX=0.5;entryY=0;entryDx=0;entryDy=0;" edge="1" parent="1" source="K5OYbm_Al2ddz-POUuhQ-585" target="K5OYbm_Al2ddz-POUuhQ-601">
          <mxGeometry relative="1" as="geometry" />
        </mxCell>
        <mxCell id="K5OYbm_Al2ddz-POUuhQ-585" value="Perdesaan" style="rounded=0;whiteSpace=wrap;html=1;" vertex="1" parent="1">
          <mxGeometry x="5570" y="280" width="120" height="40" as="geometry" />
        </mxCell>
        <mxCell id="K5OYbm_Al2ddz-POUuhQ-586" style="edgeStyle=orthogonalEdgeStyle;rounded=0;orthogonalLoop=1;jettySize=auto;html=1;entryX=0.5;entryY=0;entryDx=0;entryDy=0;exitX=0;exitY=0.5;exitDx=0;exitDy=0;" edge="1" parent="1" source="K5OYbm_Al2ddz-POUuhQ-588" target="K5OYbm_Al2ddz-POUuhQ-592">
          <mxGeometry relative="1" as="geometry">
            <Array as="points">
              <mxPoint x="4860" y="360" />
            </Array>
          </mxGeometry>
        </mxCell>
        <mxCell id="K5OYbm_Al2ddz-POUuhQ-587" style="edgeStyle=orthogonalEdgeStyle;rounded=0;orthogonalLoop=1;jettySize=auto;html=1;entryX=0.5;entryY=0;entryDx=0;entryDy=0;exitX=1;exitY=0.5;exitDx=0;exitDy=0;" edge="1" parent="1" source="K5OYbm_Al2ddz-POUuhQ-588" target="K5OYbm_Al2ddz-POUuhQ-593">
          <mxGeometry relative="1" as="geometry">
            <Array as="points">
              <mxPoint x="5000" y="360" />
            </Array>
          </mxGeometry>
        </mxCell>
        <mxCell id="K5OYbm_Al2ddz-POUuhQ-588" value="Semester 1" style="rounded=0;whiteSpace=wrap;html=1;" vertex="1" parent="1">
          <mxGeometry x="4870" y="340" width="120" height="40" as="geometry" />
        </mxCell>
        <mxCell id="K5OYbm_Al2ddz-POUuhQ-589" style="edgeStyle=orthogonalEdgeStyle;rounded=0;orthogonalLoop=1;jettySize=auto;html=1;entryX=0.5;entryY=0;entryDx=0;entryDy=0;exitX=0;exitY=0.5;exitDx=0;exitDy=0;" edge="1" parent="1" source="K5OYbm_Al2ddz-POUuhQ-591" target="K5OYbm_Al2ddz-POUuhQ-594">
          <mxGeometry relative="1" as="geometry">
            <Array as="points">
              <mxPoint x="5140" y="360" />
            </Array>
          </mxGeometry>
        </mxCell>
        <mxCell id="K5OYbm_Al2ddz-POUuhQ-590" style="edgeStyle=orthogonalEdgeStyle;rounded=0;orthogonalLoop=1;jettySize=auto;html=1;entryX=0.5;entryY=0;entryDx=0;entryDy=0;exitX=1;exitY=0.5;exitDx=0;exitDy=0;" edge="1" parent="1" source="K5OYbm_Al2ddz-POUuhQ-591" target="K5OYbm_Al2ddz-POUuhQ-595">
          <mxGeometry relative="1" as="geometry">
            <Array as="points">
              <mxPoint x="5280" y="360" />
            </Array>
          </mxGeometry>
        </mxCell>
        <mxCell id="K5OYbm_Al2ddz-POUuhQ-591" value="Semester 2" style="rounded=0;whiteSpace=wrap;html=1;" vertex="1" parent="1">
          <mxGeometry x="5150" y="340" width="120" height="40" as="geometry" />
        </mxCell>
        <mxCell id="K5OYbm_Al2ddz-POUuhQ-592" value="Harga Berlaku" style="rounded=0;whiteSpace=wrap;html=1;" vertex="1" parent="1">
          <mxGeometry x="4800" y="400" width="120" height="40" as="geometry" />
        </mxCell>
        <mxCell id="K5OYbm_Al2ddz-POUuhQ-593" value="Harga Konstan 2010" style="rounded=0;whiteSpace=wrap;html=1;" vertex="1" parent="1">
          <mxGeometry x="4940" y="400" width="120" height="40" as="geometry" />
        </mxCell>
        <mxCell id="K5OYbm_Al2ddz-POUuhQ-594" value="Harga Berlaku" style="rounded=0;whiteSpace=wrap;html=1;" vertex="1" parent="1">
          <mxGeometry x="5080" y="400" width="120" height="40" as="geometry" />
        </mxCell>
        <mxCell id="K5OYbm_Al2ddz-POUuhQ-595" value="Harga Konstan 2010" style="rounded=0;whiteSpace=wrap;html=1;" vertex="1" parent="1">
          <mxGeometry x="5220" y="400" width="120" height="40" as="geometry" />
        </mxCell>
        <mxCell id="K5OYbm_Al2ddz-POUuhQ-596" style="edgeStyle=orthogonalEdgeStyle;rounded=0;orthogonalLoop=1;jettySize=auto;html=1;entryX=0.5;entryY=0;entryDx=0;entryDy=0;exitX=0;exitY=0.5;exitDx=0;exitDy=0;" edge="1" parent="1" source="K5OYbm_Al2ddz-POUuhQ-598" target="K5OYbm_Al2ddz-POUuhQ-602">
          <mxGeometry relative="1" as="geometry">
            <Array as="points">
              <mxPoint x="5420" y="360" />
            </Array>
          </mxGeometry>
        </mxCell>
        <mxCell id="K5OYbm_Al2ddz-POUuhQ-597" style="edgeStyle=orthogonalEdgeStyle;rounded=0;orthogonalLoop=1;jettySize=auto;html=1;entryX=0.5;entryY=0;entryDx=0;entryDy=0;exitX=1;exitY=0.5;exitDx=0;exitDy=0;" edge="1" parent="1" source="K5OYbm_Al2ddz-POUuhQ-598" target="K5OYbm_Al2ddz-POUuhQ-603">
          <mxGeometry relative="1" as="geometry">
            <Array as="points">
              <mxPoint x="5560" y="360" />
            </Array>
          </mxGeometry>
        </mxCell>
        <mxCell id="K5OYbm_Al2ddz-POUuhQ-598" value="Semester 1" style="rounded=0;whiteSpace=wrap;html=1;" vertex="1" parent="1">
          <mxGeometry x="5430" y="340" width="120" height="40" as="geometry" />
        </mxCell>
        <mxCell id="K5OYbm_Al2ddz-POUuhQ-599" style="edgeStyle=orthogonalEdgeStyle;rounded=0;orthogonalLoop=1;jettySize=auto;html=1;entryX=0.5;entryY=0;entryDx=0;entryDy=0;exitX=0;exitY=0.5;exitDx=0;exitDy=0;" edge="1" parent="1" source="K5OYbm_Al2ddz-POUuhQ-601" target="K5OYbm_Al2ddz-POUuhQ-604">
          <mxGeometry relative="1" as="geometry">
            <Array as="points">
              <mxPoint x="5700" y="360" />
            </Array>
          </mxGeometry>
        </mxCell>
        <mxCell id="K5OYbm_Al2ddz-POUuhQ-600" style="edgeStyle=orthogonalEdgeStyle;rounded=0;orthogonalLoop=1;jettySize=auto;html=1;entryX=0.5;entryY=0;entryDx=0;entryDy=0;exitX=1;exitY=0.5;exitDx=0;exitDy=0;" edge="1" parent="1" source="K5OYbm_Al2ddz-POUuhQ-601" target="K5OYbm_Al2ddz-POUuhQ-605">
          <mxGeometry relative="1" as="geometry">
            <Array as="points">
              <mxPoint x="5840" y="360" />
            </Array>
          </mxGeometry>
        </mxCell>
        <mxCell id="K5OYbm_Al2ddz-POUuhQ-601" value="Semester 2" style="rounded=0;whiteSpace=wrap;html=1;" vertex="1" parent="1">
          <mxGeometry x="5710" y="340" width="120" height="40" as="geometry" />
        </mxCell>
        <mxCell id="K5OYbm_Al2ddz-POUuhQ-602" value="Harga Berlaku" style="rounded=0;whiteSpace=wrap;html=1;" vertex="1" parent="1">
          <mxGeometry x="5360" y="400" width="120" height="40" as="geometry" />
        </mxCell>
        <mxCell id="K5OYbm_Al2ddz-POUuhQ-603" value="Harga Konstan 2010" style="rounded=0;whiteSpace=wrap;html=1;" vertex="1" parent="1">
          <mxGeometry x="5500" y="400" width="120" height="40" as="geometry" />
        </mxCell>
        <mxCell id="K5OYbm_Al2ddz-POUuhQ-604" value="Harga Berlaku" style="rounded=0;whiteSpace=wrap;html=1;" vertex="1" parent="1">
          <mxGeometry x="5640" y="400" width="120" height="40" as="geometry" />
        </mxCell>
        <mxCell id="K5OYbm_Al2ddz-POUuhQ-605" value="Harga Konstan 2010" style="rounded=0;whiteSpace=wrap;html=1;" vertex="1" parent="1">
          <mxGeometry x="5780" y="400" width="120" height="40" as="geometry" />
        </mxCell>
        <mxCell id="K5OYbm_Al2ddz-POUuhQ-606" style="edgeStyle=orthogonalEdgeStyle;rounded=0;orthogonalLoop=1;jettySize=auto;html=1;entryX=0.5;entryY=0;entryDx=0;entryDy=0;" edge="1" parent="1" source="K5OYbm_Al2ddz-POUuhQ-608" target="K5OYbm_Al2ddz-POUuhQ-614">
          <mxGeometry relative="1" as="geometry" />
        </mxCell>
        <mxCell id="K5OYbm_Al2ddz-POUuhQ-607" style="edgeStyle=orthogonalEdgeStyle;rounded=0;orthogonalLoop=1;jettySize=auto;html=1;entryX=0.5;entryY=0;entryDx=0;entryDy=0;" edge="1" parent="1" source="K5OYbm_Al2ddz-POUuhQ-608" target="K5OYbm_Al2ddz-POUuhQ-617">
          <mxGeometry relative="1" as="geometry" />
        </mxCell>
        <mxCell id="K5OYbm_Al2ddz-POUuhQ-608" value="Gizi Buruk" style="rounded=0;whiteSpace=wrap;html=1;" vertex="1" parent="1">
          <mxGeometry x="6410" y="220" width="120" height="40" as="geometry" />
        </mxCell>
        <mxCell id="K5OYbm_Al2ddz-POUuhQ-609" style="edgeStyle=orthogonalEdgeStyle;rounded=0;orthogonalLoop=1;jettySize=auto;html=1;entryX=0.5;entryY=0;entryDx=0;entryDy=0;" edge="1" parent="1" source="K5OYbm_Al2ddz-POUuhQ-611" target="K5OYbm_Al2ddz-POUuhQ-640">
          <mxGeometry relative="1" as="geometry" />
        </mxCell>
        <mxCell id="K5OYbm_Al2ddz-POUuhQ-610" style="edgeStyle=orthogonalEdgeStyle;rounded=0;orthogonalLoop=1;jettySize=auto;html=1;entryX=0.5;entryY=0;entryDx=0;entryDy=0;" edge="1" parent="1" source="K5OYbm_Al2ddz-POUuhQ-611" target="K5OYbm_Al2ddz-POUuhQ-643">
          <mxGeometry relative="1" as="geometry" />
        </mxCell>
        <mxCell id="K5OYbm_Al2ddz-POUuhQ-611" value="Gizi Kurang" style="rounded=0;whiteSpace=wrap;html=1;" vertex="1" parent="1">
          <mxGeometry x="7530" y="220" width="120" height="40" as="geometry" />
        </mxCell>
        <mxCell id="K5OYbm_Al2ddz-POUuhQ-612" style="edgeStyle=orthogonalEdgeStyle;rounded=0;orthogonalLoop=1;jettySize=auto;html=1;entryX=0.5;entryY=0;entryDx=0;entryDy=0;" edge="1" parent="1" source="K5OYbm_Al2ddz-POUuhQ-614" target="K5OYbm_Al2ddz-POUuhQ-620">
          <mxGeometry relative="1" as="geometry" />
        </mxCell>
        <mxCell id="K5OYbm_Al2ddz-POUuhQ-613" style="edgeStyle=orthogonalEdgeStyle;rounded=0;orthogonalLoop=1;jettySize=auto;html=1;entryX=0.5;entryY=0;entryDx=0;entryDy=0;" edge="1" parent="1" source="K5OYbm_Al2ddz-POUuhQ-614" target="K5OYbm_Al2ddz-POUuhQ-623">
          <mxGeometry relative="1" as="geometry" />
        </mxCell>
        <mxCell id="K5OYbm_Al2ddz-POUuhQ-614" value="Perkotaan" style="rounded=0;whiteSpace=wrap;html=1;" vertex="1" parent="1">
          <mxGeometry x="6130" y="280" width="120" height="40" as="geometry" />
        </mxCell>
        <mxCell id="K5OYbm_Al2ddz-POUuhQ-615" style="edgeStyle=orthogonalEdgeStyle;rounded=0;orthogonalLoop=1;jettySize=auto;html=1;entryX=0.5;entryY=0;entryDx=0;entryDy=0;" edge="1" parent="1" source="K5OYbm_Al2ddz-POUuhQ-617" target="K5OYbm_Al2ddz-POUuhQ-630">
          <mxGeometry relative="1" as="geometry" />
        </mxCell>
        <mxCell id="K5OYbm_Al2ddz-POUuhQ-616" style="edgeStyle=orthogonalEdgeStyle;rounded=0;orthogonalLoop=1;jettySize=auto;html=1;entryX=0.5;entryY=0;entryDx=0;entryDy=0;" edge="1" parent="1" source="K5OYbm_Al2ddz-POUuhQ-617" target="K5OYbm_Al2ddz-POUuhQ-633">
          <mxGeometry relative="1" as="geometry" />
        </mxCell>
        <mxCell id="K5OYbm_Al2ddz-POUuhQ-617" value="Perdesaan" style="rounded=0;whiteSpace=wrap;html=1;" vertex="1" parent="1">
          <mxGeometry x="6690" y="280" width="120" height="40" as="geometry" />
        </mxCell>
        <mxCell id="K5OYbm_Al2ddz-POUuhQ-618" style="edgeStyle=orthogonalEdgeStyle;rounded=0;orthogonalLoop=1;jettySize=auto;html=1;entryX=0.5;entryY=0;entryDx=0;entryDy=0;exitX=0;exitY=0.5;exitDx=0;exitDy=0;" edge="1" parent="1" source="K5OYbm_Al2ddz-POUuhQ-620" target="K5OYbm_Al2ddz-POUuhQ-624">
          <mxGeometry relative="1" as="geometry">
            <Array as="points">
              <mxPoint x="5980" y="360" />
            </Array>
          </mxGeometry>
        </mxCell>
        <mxCell id="K5OYbm_Al2ddz-POUuhQ-619" style="edgeStyle=orthogonalEdgeStyle;rounded=0;orthogonalLoop=1;jettySize=auto;html=1;entryX=0.5;entryY=0;entryDx=0;entryDy=0;exitX=1;exitY=0.5;exitDx=0;exitDy=0;" edge="1" parent="1" source="K5OYbm_Al2ddz-POUuhQ-620" target="K5OYbm_Al2ddz-POUuhQ-625">
          <mxGeometry relative="1" as="geometry">
            <Array as="points">
              <mxPoint x="6120" y="360" />
            </Array>
          </mxGeometry>
        </mxCell>
        <mxCell id="K5OYbm_Al2ddz-POUuhQ-620" value="Semester 1" style="rounded=0;whiteSpace=wrap;html=1;" vertex="1" parent="1">
          <mxGeometry x="5990" y="340" width="120" height="40" as="geometry" />
        </mxCell>
        <mxCell id="K5OYbm_Al2ddz-POUuhQ-621" style="edgeStyle=orthogonalEdgeStyle;rounded=0;orthogonalLoop=1;jettySize=auto;html=1;entryX=0.5;entryY=0;entryDx=0;entryDy=0;exitX=0;exitY=0.5;exitDx=0;exitDy=0;" edge="1" parent="1" source="K5OYbm_Al2ddz-POUuhQ-623" target="K5OYbm_Al2ddz-POUuhQ-626">
          <mxGeometry relative="1" as="geometry">
            <Array as="points">
              <mxPoint x="6260" y="360" />
            </Array>
          </mxGeometry>
        </mxCell>
        <mxCell id="K5OYbm_Al2ddz-POUuhQ-622" style="edgeStyle=orthogonalEdgeStyle;rounded=0;orthogonalLoop=1;jettySize=auto;html=1;entryX=0.5;entryY=0;entryDx=0;entryDy=0;exitX=1;exitY=0.5;exitDx=0;exitDy=0;" edge="1" parent="1" source="K5OYbm_Al2ddz-POUuhQ-623" target="K5OYbm_Al2ddz-POUuhQ-627">
          <mxGeometry relative="1" as="geometry">
            <Array as="points">
              <mxPoint x="6400" y="360" />
            </Array>
          </mxGeometry>
        </mxCell>
        <mxCell id="K5OYbm_Al2ddz-POUuhQ-623" value="Semester 2" style="rounded=0;whiteSpace=wrap;html=1;" vertex="1" parent="1">
          <mxGeometry x="6270" y="340" width="120" height="40" as="geometry" />
        </mxCell>
        <mxCell id="K5OYbm_Al2ddz-POUuhQ-624" value="Harga Berlaku" style="rounded=0;whiteSpace=wrap;html=1;" vertex="1" parent="1">
          <mxGeometry x="5920" y="400" width="120" height="40" as="geometry" />
        </mxCell>
        <mxCell id="K5OYbm_Al2ddz-POUuhQ-625" value="Harga Konstan 2010" style="rounded=0;whiteSpace=wrap;html=1;" vertex="1" parent="1">
          <mxGeometry x="6060" y="400" width="120" height="40" as="geometry" />
        </mxCell>
        <mxCell id="K5OYbm_Al2ddz-POUuhQ-626" value="Harga Berlaku" style="rounded=0;whiteSpace=wrap;html=1;" vertex="1" parent="1">
          <mxGeometry x="6200" y="400" width="120" height="40" as="geometry" />
        </mxCell>
        <mxCell id="K5OYbm_Al2ddz-POUuhQ-627" value="Harga Konstan 2010" style="rounded=0;whiteSpace=wrap;html=1;" vertex="1" parent="1">
          <mxGeometry x="6340" y="400" width="120" height="40" as="geometry" />
        </mxCell>
        <mxCell id="K5OYbm_Al2ddz-POUuhQ-628" style="edgeStyle=orthogonalEdgeStyle;rounded=0;orthogonalLoop=1;jettySize=auto;html=1;entryX=0.5;entryY=0;entryDx=0;entryDy=0;exitX=0;exitY=0.5;exitDx=0;exitDy=0;" edge="1" parent="1" source="K5OYbm_Al2ddz-POUuhQ-630" target="K5OYbm_Al2ddz-POUuhQ-634">
          <mxGeometry relative="1" as="geometry">
            <Array as="points">
              <mxPoint x="6540" y="360" />
            </Array>
          </mxGeometry>
        </mxCell>
        <mxCell id="K5OYbm_Al2ddz-POUuhQ-629" style="edgeStyle=orthogonalEdgeStyle;rounded=0;orthogonalLoop=1;jettySize=auto;html=1;entryX=0.5;entryY=0;entryDx=0;entryDy=0;exitX=1;exitY=0.5;exitDx=0;exitDy=0;" edge="1" parent="1" source="K5OYbm_Al2ddz-POUuhQ-630" target="K5OYbm_Al2ddz-POUuhQ-635">
          <mxGeometry relative="1" as="geometry">
            <Array as="points">
              <mxPoint x="6680" y="360" />
            </Array>
          </mxGeometry>
        </mxCell>
        <mxCell id="K5OYbm_Al2ddz-POUuhQ-630" value="Semester 1" style="rounded=0;whiteSpace=wrap;html=1;" vertex="1" parent="1">
          <mxGeometry x="6550" y="340" width="120" height="40" as="geometry" />
        </mxCell>
        <mxCell id="K5OYbm_Al2ddz-POUuhQ-631" style="edgeStyle=orthogonalEdgeStyle;rounded=0;orthogonalLoop=1;jettySize=auto;html=1;entryX=0.5;entryY=0;entryDx=0;entryDy=0;exitX=0;exitY=0.5;exitDx=0;exitDy=0;" edge="1" parent="1" source="K5OYbm_Al2ddz-POUuhQ-633" target="K5OYbm_Al2ddz-POUuhQ-636">
          <mxGeometry relative="1" as="geometry">
            <Array as="points">
              <mxPoint x="6820" y="360" />
            </Array>
          </mxGeometry>
        </mxCell>
        <mxCell id="K5OYbm_Al2ddz-POUuhQ-632" style="edgeStyle=orthogonalEdgeStyle;rounded=0;orthogonalLoop=1;jettySize=auto;html=1;entryX=0.5;entryY=0;entryDx=0;entryDy=0;exitX=1;exitY=0.5;exitDx=0;exitDy=0;" edge="1" parent="1" source="K5OYbm_Al2ddz-POUuhQ-633" target="K5OYbm_Al2ddz-POUuhQ-637">
          <mxGeometry relative="1" as="geometry">
            <Array as="points">
              <mxPoint x="6960" y="360" />
            </Array>
          </mxGeometry>
        </mxCell>
        <mxCell id="K5OYbm_Al2ddz-POUuhQ-633" value="Semester 2" style="rounded=0;whiteSpace=wrap;html=1;" vertex="1" parent="1">
          <mxGeometry x="6830" y="340" width="120" height="40" as="geometry" />
        </mxCell>
        <mxCell id="K5OYbm_Al2ddz-POUuhQ-634" value="Harga Berlaku" style="rounded=0;whiteSpace=wrap;html=1;" vertex="1" parent="1">
          <mxGeometry x="6480" y="400" width="120" height="40" as="geometry" />
        </mxCell>
        <mxCell id="K5OYbm_Al2ddz-POUuhQ-635" value="Harga Konstan 2010" style="rounded=0;whiteSpace=wrap;html=1;" vertex="1" parent="1">
          <mxGeometry x="6620" y="400" width="120" height="40" as="geometry" />
        </mxCell>
        <mxCell id="K5OYbm_Al2ddz-POUuhQ-636" value="Harga Berlaku" style="rounded=0;whiteSpace=wrap;html=1;" vertex="1" parent="1">
          <mxGeometry x="6760" y="400" width="120" height="40" as="geometry" />
        </mxCell>
        <mxCell id="K5OYbm_Al2ddz-POUuhQ-637" value="Harga Konstan 2010" style="rounded=0;whiteSpace=wrap;html=1;" vertex="1" parent="1">
          <mxGeometry x="6900" y="400" width="120" height="40" as="geometry" />
        </mxCell>
        <mxCell id="K5OYbm_Al2ddz-POUuhQ-638" style="edgeStyle=orthogonalEdgeStyle;rounded=0;orthogonalLoop=1;jettySize=auto;html=1;entryX=0.5;entryY=0;entryDx=0;entryDy=0;" edge="1" parent="1" source="K5OYbm_Al2ddz-POUuhQ-640" target="K5OYbm_Al2ddz-POUuhQ-646">
          <mxGeometry relative="1" as="geometry" />
        </mxCell>
        <mxCell id="K5OYbm_Al2ddz-POUuhQ-639" style="edgeStyle=orthogonalEdgeStyle;rounded=0;orthogonalLoop=1;jettySize=auto;html=1;entryX=0.5;entryY=0;entryDx=0;entryDy=0;" edge="1" parent="1" source="K5OYbm_Al2ddz-POUuhQ-640" target="K5OYbm_Al2ddz-POUuhQ-649">
          <mxGeometry relative="1" as="geometry" />
        </mxCell>
        <mxCell id="K5OYbm_Al2ddz-POUuhQ-640" value="Perkotaan" style="rounded=0;whiteSpace=wrap;html=1;" vertex="1" parent="1">
          <mxGeometry x="7250" y="280" width="120" height="40" as="geometry" />
        </mxCell>
        <mxCell id="K5OYbm_Al2ddz-POUuhQ-641" style="edgeStyle=orthogonalEdgeStyle;rounded=0;orthogonalLoop=1;jettySize=auto;html=1;entryX=0.5;entryY=0;entryDx=0;entryDy=0;" edge="1" parent="1" source="K5OYbm_Al2ddz-POUuhQ-643" target="K5OYbm_Al2ddz-POUuhQ-656">
          <mxGeometry relative="1" as="geometry" />
        </mxCell>
        <mxCell id="K5OYbm_Al2ddz-POUuhQ-642" style="edgeStyle=orthogonalEdgeStyle;rounded=0;orthogonalLoop=1;jettySize=auto;html=1;entryX=0.5;entryY=0;entryDx=0;entryDy=0;" edge="1" parent="1" source="K5OYbm_Al2ddz-POUuhQ-643" target="K5OYbm_Al2ddz-POUuhQ-659">
          <mxGeometry relative="1" as="geometry" />
        </mxCell>
        <mxCell id="K5OYbm_Al2ddz-POUuhQ-643" value="Perdesaan" style="rounded=0;whiteSpace=wrap;html=1;" vertex="1" parent="1">
          <mxGeometry x="7810" y="280" width="120" height="40" as="geometry" />
        </mxCell>
        <mxCell id="K5OYbm_Al2ddz-POUuhQ-644" style="edgeStyle=orthogonalEdgeStyle;rounded=0;orthogonalLoop=1;jettySize=auto;html=1;entryX=0.5;entryY=0;entryDx=0;entryDy=0;exitX=0;exitY=0.5;exitDx=0;exitDy=0;" edge="1" parent="1" source="K5OYbm_Al2ddz-POUuhQ-646" target="K5OYbm_Al2ddz-POUuhQ-650">
          <mxGeometry relative="1" as="geometry">
            <Array as="points">
              <mxPoint x="7100" y="360" />
            </Array>
          </mxGeometry>
        </mxCell>
        <mxCell id="K5OYbm_Al2ddz-POUuhQ-645" style="edgeStyle=orthogonalEdgeStyle;rounded=0;orthogonalLoop=1;jettySize=auto;html=1;entryX=0.5;entryY=0;entryDx=0;entryDy=0;exitX=1;exitY=0.5;exitDx=0;exitDy=0;" edge="1" parent="1" source="K5OYbm_Al2ddz-POUuhQ-646" target="K5OYbm_Al2ddz-POUuhQ-651">
          <mxGeometry relative="1" as="geometry">
            <Array as="points">
              <mxPoint x="7240" y="360" />
            </Array>
          </mxGeometry>
        </mxCell>
        <mxCell id="K5OYbm_Al2ddz-POUuhQ-646" value="Semester 1" style="rounded=0;whiteSpace=wrap;html=1;" vertex="1" parent="1">
          <mxGeometry x="7110" y="340" width="120" height="40" as="geometry" />
        </mxCell>
        <mxCell id="K5OYbm_Al2ddz-POUuhQ-647" style="edgeStyle=orthogonalEdgeStyle;rounded=0;orthogonalLoop=1;jettySize=auto;html=1;entryX=0.5;entryY=0;entryDx=0;entryDy=0;exitX=0;exitY=0.5;exitDx=0;exitDy=0;" edge="1" parent="1" source="K5OYbm_Al2ddz-POUuhQ-649" target="K5OYbm_Al2ddz-POUuhQ-652">
          <mxGeometry relative="1" as="geometry">
            <Array as="points">
              <mxPoint x="7380" y="360" />
            </Array>
          </mxGeometry>
        </mxCell>
        <mxCell id="K5OYbm_Al2ddz-POUuhQ-648" style="edgeStyle=orthogonalEdgeStyle;rounded=0;orthogonalLoop=1;jettySize=auto;html=1;entryX=0.5;entryY=0;entryDx=0;entryDy=0;exitX=1;exitY=0.5;exitDx=0;exitDy=0;" edge="1" parent="1" source="K5OYbm_Al2ddz-POUuhQ-649" target="K5OYbm_Al2ddz-POUuhQ-653">
          <mxGeometry relative="1" as="geometry">
            <Array as="points">
              <mxPoint x="7520" y="360" />
            </Array>
          </mxGeometry>
        </mxCell>
        <mxCell id="K5OYbm_Al2ddz-POUuhQ-649" value="Semester 2" style="rounded=0;whiteSpace=wrap;html=1;" vertex="1" parent="1">
          <mxGeometry x="7390" y="340" width="120" height="40" as="geometry" />
        </mxCell>
        <mxCell id="K5OYbm_Al2ddz-POUuhQ-650" value="Harga Berlaku" style="rounded=0;whiteSpace=wrap;html=1;" vertex="1" parent="1">
          <mxGeometry x="7040" y="400" width="120" height="40" as="geometry" />
        </mxCell>
        <mxCell id="K5OYbm_Al2ddz-POUuhQ-651" value="Harga Konstan 2010" style="rounded=0;whiteSpace=wrap;html=1;" vertex="1" parent="1">
          <mxGeometry x="7180" y="400" width="120" height="40" as="geometry" />
        </mxCell>
        <mxCell id="K5OYbm_Al2ddz-POUuhQ-652" value="Harga Berlaku" style="rounded=0;whiteSpace=wrap;html=1;" vertex="1" parent="1">
          <mxGeometry x="7320" y="400" width="120" height="40" as="geometry" />
        </mxCell>
        <mxCell id="K5OYbm_Al2ddz-POUuhQ-653" value="Harga Konstan 2010" style="rounded=0;whiteSpace=wrap;html=1;" vertex="1" parent="1">
          <mxGeometry x="7460" y="400" width="120" height="40" as="geometry" />
        </mxCell>
        <mxCell id="K5OYbm_Al2ddz-POUuhQ-654" style="edgeStyle=orthogonalEdgeStyle;rounded=0;orthogonalLoop=1;jettySize=auto;html=1;entryX=0.5;entryY=0;entryDx=0;entryDy=0;exitX=0;exitY=0.5;exitDx=0;exitDy=0;" edge="1" parent="1" source="K5OYbm_Al2ddz-POUuhQ-656" target="K5OYbm_Al2ddz-POUuhQ-660">
          <mxGeometry relative="1" as="geometry">
            <Array as="points">
              <mxPoint x="7660" y="360" />
            </Array>
          </mxGeometry>
        </mxCell>
        <mxCell id="K5OYbm_Al2ddz-POUuhQ-655" style="edgeStyle=orthogonalEdgeStyle;rounded=0;orthogonalLoop=1;jettySize=auto;html=1;entryX=0.5;entryY=0;entryDx=0;entryDy=0;exitX=1;exitY=0.5;exitDx=0;exitDy=0;" edge="1" parent="1" source="K5OYbm_Al2ddz-POUuhQ-656" target="K5OYbm_Al2ddz-POUuhQ-661">
          <mxGeometry relative="1" as="geometry">
            <Array as="points">
              <mxPoint x="7800" y="360" />
            </Array>
          </mxGeometry>
        </mxCell>
        <mxCell id="K5OYbm_Al2ddz-POUuhQ-656" value="Semester 1" style="rounded=0;whiteSpace=wrap;html=1;" vertex="1" parent="1">
          <mxGeometry x="7670" y="340" width="120" height="40" as="geometry" />
        </mxCell>
        <mxCell id="K5OYbm_Al2ddz-POUuhQ-657" style="edgeStyle=orthogonalEdgeStyle;rounded=0;orthogonalLoop=1;jettySize=auto;html=1;entryX=0.5;entryY=0;entryDx=0;entryDy=0;exitX=0;exitY=0.5;exitDx=0;exitDy=0;" edge="1" parent="1" source="K5OYbm_Al2ddz-POUuhQ-659" target="K5OYbm_Al2ddz-POUuhQ-662">
          <mxGeometry relative="1" as="geometry">
            <Array as="points">
              <mxPoint x="7940" y="360" />
            </Array>
          </mxGeometry>
        </mxCell>
        <mxCell id="K5OYbm_Al2ddz-POUuhQ-658" style="edgeStyle=orthogonalEdgeStyle;rounded=0;orthogonalLoop=1;jettySize=auto;html=1;entryX=0.5;entryY=0;entryDx=0;entryDy=0;exitX=1;exitY=0.5;exitDx=0;exitDy=0;" edge="1" parent="1" source="K5OYbm_Al2ddz-POUuhQ-659" target="K5OYbm_Al2ddz-POUuhQ-663">
          <mxGeometry relative="1" as="geometry">
            <Array as="points">
              <mxPoint x="8080" y="360" />
            </Array>
          </mxGeometry>
        </mxCell>
        <mxCell id="K5OYbm_Al2ddz-POUuhQ-659" value="Semester 2" style="rounded=0;whiteSpace=wrap;html=1;" vertex="1" parent="1">
          <mxGeometry x="7950" y="340" width="120" height="40" as="geometry" />
        </mxCell>
        <mxCell id="K5OYbm_Al2ddz-POUuhQ-660" value="Harga Berlaku" style="rounded=0;whiteSpace=wrap;html=1;" vertex="1" parent="1">
          <mxGeometry x="7600" y="400" width="120" height="40" as="geometry" />
        </mxCell>
        <mxCell id="K5OYbm_Al2ddz-POUuhQ-661" value="Harga Konstan 2010" style="rounded=0;whiteSpace=wrap;html=1;" vertex="1" parent="1">
          <mxGeometry x="7740" y="400" width="120" height="40" as="geometry" />
        </mxCell>
        <mxCell id="K5OYbm_Al2ddz-POUuhQ-662" value="Harga Berlaku" style="rounded=0;whiteSpace=wrap;html=1;" vertex="1" parent="1">
          <mxGeometry x="7880" y="400" width="120" height="40" as="geometry" />
        </mxCell>
        <mxCell id="K5OYbm_Al2ddz-POUuhQ-663" value="Harga Konstan 2010" style="rounded=0;whiteSpace=wrap;html=1;" vertex="1" parent="1">
          <mxGeometry x="8020" y="400" width="120" height="40" as="geometry" />
        </mxCell>
      </root>
    </mxGraphModel>
  </diagram>
</mxfile>
